<?xml version="1.0" encoding="UTF-8"?>
<svg version="1.1" xmlns="http://www.w3.org/2000/svg" width="1000" height="1000">
<path d="M0 0 C0 0.99 0 1.98 0 3 C4.39634104 2.88994608 8.79183979 2.75935538 13.1875 2.625 C14.43337891 2.5940625 15.67925781 2.563125 16.96289062 2.53125 C18.16494141 2.49257812 19.36699219 2.45390625 20.60546875 2.4140625 C21.71043701 2.3826416 22.81540527 2.3512207 23.95385742 2.31884766 C26.9951911 2.00050336 29.19272477 1.14470242 32 0 C34.625 0.8125 34.625 0.8125 37 2 C39.85082796 2.95027599 42.21103374 3.29191216 45.1875 3.5625 C46.53908203 3.68818359 46.53908203 3.68818359 47.91796875 3.81640625 C48.94857422 3.90728516 48.94857422 3.90728516 50 4 C50 4.66 50 5.32 50 6 C50.9075 5.814375 51.815 5.62875 52.75 5.4375 C55.68314324 5.04265379 57.2644657 5.05308428 60 6 C60 6.66 60 7.32 60 8 C61.32 7.67 62.64 7.34 64 7 C64 7.66 64 8.32 64 9 C65.32 8.67 66.64 8.34 68 8 C68 8.66 68 9.32 68 10 C69.32 9.67 70.64 9.34 72 9 C72 9.66 72 10.32 72 11 C73.32 10.34 74.64 9.68 76 9 C76.33 9.66 76.66 10.32 77 11 C79.14076292 11.84250586 79.14076292 11.84250586 81.6875 12.5 C84.65869954 13.3373767 87.57472639 14.19499645 90.5 15.1875 C92.87889176 16.10302869 92.87889176 16.10302869 95 16 C95.33 16.66 95.66 17.32 96 18 C97.99907258 18.66944251 99.99932512 19.33536139 102 20 C104.88561464 21.38257224 107.689592 22.90881586 110.5 24.4375 C111.96841668 25.22848368 113.43716083 26.01885977 114.90625 26.80859375 C115.60234375 27.18483887 116.2984375 27.56108398 117.015625 27.94873047 C118.79298797 28.89033049 120.59819073 29.7789347 122.40625 30.66015625 C125 32 125 32 127 34 C127.99 34.495 128.98 34.99 130 35.5 C133 37 133 37 135 39 C136.2375 39.7425 136.2375 39.7425 137.5 40.5 C140 42 140 42 142 44 C142.66 44.33 143.32 44.66 144 45 C144 45.66 144 46.32 144 47 C144.61875 47.12375 145.2375 47.2475 145.875 47.375 C148 48 148 48 150 50 C150.66 50.33 151.32 50.66 152 51 C152 51.66 152 52.32 152 53 C153.65 53.33 155.3 53.66 157 54 C157 54.66 157 55.32 157 56 C157.66 56 158.32 56 159 56 C159.4125 56.7425 159.825 57.485 160.25 58.25 C162.39429042 61.61959923 164.64226871 62.8459837 168 65 C172.72646582 68.67027234 175.83771652 71.37806295 178 77 C179.76996701 78.67418056 181.61232913 80.17769947 183.5390625 81.66796875 C184.26222656 82.32732422 184.26222656 82.32732422 185 83 C185 83.66 185 84.32 185 85 C185.99 85.66 186.98 86.32 188 87 C188 87.99 188 88.98 188 90 C188.99 90.33 189.98 90.66 191 91 C191 91.66 191 92.32 191 93 C191.45375 93.45375 191.9075 93.9075 192.375 94.375 C194.13681825 96.13681825 194.89334437 97.78668874 196 100 C196.804375 100.7734375 196.804375 100.7734375 197.625 101.5625 C199 103 199 103 199 106 C199.99 106.33 200.98 106.66 202 107 C201.67 107.33 201.34 107.66 201 108 C201.45503906 108.42039551 201.91007812 108.84079102 202.37890625 109.27392578 C204.00574486 111.00611689 204.91047896 112.48766158 205.9375 114.6171875 C206.27523438 115.30683594 206.61296875 115.99648438 206.9609375 116.70703125 C207.30382812 117.42246094 207.64671875 118.13789063 208 118.875 C210.17906449 123.37239251 212.41662635 127.71744309 215 132 C215.67939174 133.99571323 216.34561559 135.99594773 217 138 C217.495 138.969375 217.99 139.93875 218.5 140.9375 C220.12305401 144.25123526 221.17084428 147.40699188 222 151 C221.67 151.66 221.34 152.32 221 153 C221.66 153.33 222.32 153.66 223 154 C222.67 154.66 222.34 155.32 222 156 C222.66 156.33 223.32 156.66 224 157 C223.67 157.66 223.34 158.32 223 159 C223.66 159 224.32 159 225 159 C224.67 160.32 224.34 161.64 224 163 C224.66 163 225.32 163 226 163 C225.67 164.32 225.34 165.64 225 167 C225.66 167 226.32 167 227 167 C226.67 168.32 226.34 169.64 226 171 C226.66 171 227.32 171 228 171 C227.67 172.32 227.34 173.64 227 175 C227.66 175 228.32 175 229 175 C228.67 176.65 228.34 178.3 228 180 C228.66 180 229.32 180 230 180 C229.67 181.65 229.34 183.3 229 185 C229.66 185 230.32 185 231 185 C230.979375 185.9075 230.95875 186.815 230.9375 187.75 C231.01118346 191.58154017 231.79650431 194.38951293 233 198 C233.09098136 199.43119081 233.12789312 200.866214 233.12939453 202.30029297 C233.13412277 203.59711502 233.13412277 203.59711502 233.13894653 204.9201355 C233.1369223 205.85141266 233.13489807 206.78268982 233.1328125 207.7421875 C233.13376923 208.70271027 233.13472595 209.66323303 233.13571167 210.65286255 C233.13639233 212.68540513 233.134546 214.71794988 233.13037109 216.75048828 C233.12503293 219.85584427 233.13031393 222.96105484 233.13671875 226.06640625 C233.13605772 228.04166699 233.13477604 230.01692763 233.1328125 231.9921875 C233.13483673 232.9194162 233.13686096 233.8466449 233.13894653 234.80197144 C233.12366564 239.02364684 232.95596248 242.86952062 232 247 C232 248.32 232 249.64 232 251 C231.34 251 230.68 251 230 251 C230.33 252.98 230.66 254.96 231 257 C230.34 257 229.68 257 229 257 C229.33 258.98 229.66 260.96 230 263 C229.34 263 228.68 263 228 263 C228.20625 263.53625 228.4125 264.0725 228.625 264.625 C229.13496667 267.85478892 228.10023332 269.94379633 227 273 C226.855625 273.94875 226.71125 274.8975 226.5625 275.875 C225.96266425 279.20742083 224.90654543 282.0496721 223.62109375 285.16796875 C222.83946501 287.15111944 222.83946501 287.15111944 223 290 C222.34 290.99 221.68 291.98 221 293 C221 294.32 221 295.64 221 297 C220.125 299 220.125 299 219 301 C217.57827012 303.67619743 216.69247712 306.05697223 216 309 C214.83401367 312.99766742 213.53114112 315.73060938 211 319 C210.30341637 320.65438613 209.63903117 322.32254318 209 324 C206.33333333 329.66666667 206.33333333 329.66666667 204 332 C203.30062468 333.31647119 202.63270867 334.65022151 202 336 C201.67 336.66 201.34 337.32 201 338 C200.01 338 199.02 338 198 338 C198.061875 339.175625 198.061875 339.175625 198.125 340.375 C198 343 198 343 196 345 C194.03900739 347.75125424 194.03900739 347.75125424 193.12890625 349.99609375 C191.75073094 352.44247415 190.24759344 353.49029484 187.9375 355.0625 C184.57812414 357.29474309 184.57812414 357.29474309 183 361 C182.34 361.33 181.68 361.66 181 362 C180.319375 363.1446875 180.319375 363.1446875 179.625 364.3125 C177.99622851 367.00623747 176.36811253 368.93745038 174 371 C173.34 371 172.68 371 172 371 C171.5978125 371.86625 171.5978125 371.86625 171.1875 372.75 C169.97070811 375.05550043 168.69666121 377.02056192 167 379 C166.34 379 165.68 379 165 379 C165 379.66 165 380.32 165 381 C164.34 381 163.68 381 163 381 C163 381.66 163 382.32 163 383 C158.61538462 386 158.61538462 386 156 386 C155.34 387.32 154.68 388.64 154 390 C153.34 390 152.68 390 152 390 C151.34 391.32 150.68 392.64 150 394 C149.01 394 148.02 394 147 394 C145.49985609 395.33289654 145.49985609 395.33289654 144 397 C142.67151309 398.00642948 141.33849671 399.00692179 140 400 C139.34 400.66 138.68 401.32 138 402 C140.83408486 404.02434633 143.33679849 405.78862876 146.671875 406.8515625 C150.91231884 408.31481425 154.69132902 410.36243226 158.625 412.5 C160.11701395 413.30240613 161.60919594 414.10449988 163.1015625 414.90625 C163.75463379 415.26009766 164.40770508 415.61394531 165.08056641 415.97851562 C167.03763582 417.02002904 169.01310175 418.01676984 171 419 C171 419.66 171 420.32 171 421 C172.65 421.33 174.3 421.66 176 422 C176 422.66 176 423.32 176 424 C176.99 424 177.98 424 179 424 C179 424.66 179 425.32 179 426 C179.99 426 180.98 426 182 426 C182 426.66 182 427.32 182 428 C182.99 428 183.98 428 185 428 C185.66 428.66 186.32 429.32 187 430 C187.66 430.33 188.32 430.66 189 431 C191 432 191 432 193 434 C194.32267727 435.01405257 195.65724831 436.01268258 197 437 C200.99535073 439.96429247 204.87283927 443.05633055 208.6875 446.25 C210.78246431 448.20114756 210.78246431 448.20114756 213 448 C214.1484375 449.4609375 214.1484375 449.4609375 215.375 451.375 C217.3586555 454.29489408 218.76054694 455.54783139 222 457 C223.25 459.125 223.25 459.125 224 461 C224.66 461 225.32 461 226 461 C226 461.66 226 462.32 226 463 C226.598125 463.12375 227.19625 463.2475 227.8125 463.375 C230 464 230 464 233 466 C233 466.66 233 467.32 233 468 C233.66 468 234.32 468 235 468 C238.28989182 471.19476242 241.26469405 474.68257684 243.5 478.6875 C245.39001909 481.60127943 247.64785574 482.98356317 250.57421875 484.7890625 C251.04472656 485.18867187 251.51523437 485.58828125 252 486 C252 486.99 252 487.98 252 489 C253.53899953 490.60767163 253.53899953 490.60767163 255.5 492.0625 C257.46875 493.59765625 257.46875 493.59765625 259 495 C259 495.66 259 496.32 259 497 C259.99 497.66 260.98 498.32 262 499 C262 499.99 262 500.98 262 502 C262.99 502.33 263.98 502.66 265 503 C265 503.66 265 504.32 265 505 C265.99 505.66 266.98 506.32 268 507 C268 507.99 268 508.98 268 510 C268.99 510.33 269.98 510.66 271 511 C271 511.66 271 512.32 271 513 C271.99 513.66 272.98 514.32 274 515 C273.67 515.33 273.34 515.66 273 516 C274.8679687 517.92832587 274.8679687 517.92832587 276.5 519.25 C278.50611066 521.59046244 279.03127582 524.09382747 280 527 C281.5412312 528.70921589 281.5412312 528.70921589 283 530 C283 530.66 283 531.32 283 532 C283.7115625 532.6496875 283.7115625 532.6496875 284.4375 533.3125 C286.41323898 535.4462981 286.4822875 537.18956072 287 540 C287.66 540.33 288.32 540.66 289 541 C289.88936214 542.61624466 290.71449831 544.26830891 291.5 545.9375 C293.30611242 549.7751351 293.30611242 549.7751351 296 553 C296.69258229 554.99117408 297.35747635 556.9921136 298 559 C298.391875 559.7425 298.78375 560.485 299.1875 561.25 C299.455625 561.8275 299.72375 562.405 300 563 C299.67 563.66 299.34 564.32 299 565 C299.66 565.33 300.32 565.66 301 566 C303.67461076 569.78903191 304.82280645 573.54348154 306 578 C306.33 578.66 306.66 579.32 307 580 C306.67 580.66 306.34 581.32 306 582 C306.66 582.33 307.32 582.66 308 583 C310.76725621 588.44803567 312.46259683 594.20611423 313.60546875 600.1875 C313.94100636 602.08763239 313.94100636 602.08763239 315 604 C314.67 604.66 314.34 605.32 314 606 C314.66 606 315.32 606 316 606 C315.67 607.32 315.34 608.64 315 610 C315.66 610 316.32 610 317 610 C318.125 614.75 318.125 614.75 317 617 C317.66 617 318.32 617 319 617 C320.125 623.75 320.125 623.75 319 626 C319.66 626 320.32 626 321 626 C320.67 627.65 320.34 629.3 320 631 C320.66 631 321.32 631 322 631 C321.67 632.65 321.34 634.3 321 636 C321.66 636 322.32 636 323 636 C322.67 637.98 322.34 639.96 322 642 C322.66 642 323.32 642 324 642 C323.67 643.98 323.34 645.96 323 648 C323.66 648 324.32 648 325 648 C324.67 650.64 324.34 653.28 324 656 C324.66 656 325.32 656 326 656 C326 658.64 326 661.28 326 664 C326.33 664 326.66 664 327 664 C326.67 672.58 326.34 681.16 326 690 C315.875 691.125 315.875 691.125 311.11303711 691.20532227 C310.05261703 691.22526749 308.99219696 691.24521271 307.89964294 691.26576233 C306.78678421 691.28247482 305.67392548 691.29918732 304.52734375 691.31640625 C303.3636879 691.33718735 302.20003204 691.35796844 301.00111389 691.37937927 C297.313298 691.44434309 293.6254158 691.50351068 289.9375 691.5625 C287.42512357 691.60573587 284.91275365 691.64935171 282.40039062 691.69335938 C276.26699554 691.79996939 270.13353568 691.90183082 264 692 C263.05049135 688.58028525 263 685.54667612 263 682 C262.67 681.67 262.34 681.34 262 681 C261.92680379 678.30345146 261.90757463 675.63308542 261.9375 672.9375 C261.94426758 671.79958008 261.94426758 671.79958008 261.95117188 670.63867188 C261.9629932 668.75908129 261.98092922 666.87953101 262 665 C261.67 665 261.34 665 261 665 C261.33 662.03 261.66 659.06 262 656 C261.34 656 260.68 656 260 656 C260.33 654.02 260.66 652.04 261 650 C260.34 650 259.68 650 259 650 C259.04125 649.05125 259.0825 648.1025 259.125 647.125 C259.34973818 643.89755144 259.34973818 643.89755144 257 642 C257.66 640.68 258.32 639.36 259 638 C258.34 638 257.68 638 257 638 C257.33 636.68 257.66 635.36 258 634 C257.34 634 256.68 634 256 634 C256.33 632.68 256.66 631.36 257 630 C256.34 630 255.68 630 255 630 C255.33 628.68 255.66 627.36 256 626 C255.34 626 254.68 626 254 626 C254.33 624.68 254.66 623.36 255 622 C254.34 622 253.68 622 253 622 C253.33 620.68 253.66 619.36 254 618 C253.34 618 252.68 618 252 618 C251.82984375 617.32195313 251.6596875 616.64390625 251.484375 615.9453125 C249.2603791 607.40422187 246.58479301 599.56490847 242 592 C242 591.01 242 590.02 242 589 C241.13907183 587.20582999 241.13907183 587.20582999 240 585.4375 C238 582 238 582 238 580 C237.34 579.67 236.68 579.34 236 579 C236 578.01 236 577.02 236 576 C235.34 575.67 234.68 575.34 234 575 C234 574.01 234 573.02 234 572 C233.34 571.34 232.68 570.68 232 570 C231.8453125 568.8553125 231.8453125 568.8553125 231.6875 567.6875 C231.18088692 564.75605159 231.18088692 564.75605159 228.5 562.5 C225.74529304 559.74529304 225.69123603 558.65367615 225 555 C223.03241727 553.63979849 223.03241727 553.63979849 221 553 C221 551.68 221 550.36 221 549 C219.0745356 546.7763932 219.0745356 546.7763932 216 546 C216 544.68 216 543.36 216 542 C215.01 542 214.02 542 213 542 C213 540.68 213 539.36 213 538 C212.01 538 211.02 538 210 538 C209.67 536.35 209.34 534.7 209 533 C207.35 532.67 205.7 532.34 204 532 C204.33 530.68 204.66 529.36 205 528 C204.37351562 527.46890625 203.74703125 526.9378125 203.1015625 526.390625 C202.28429687 525.68421875 201.46703125 524.9778125 200.625 524.25 C199.81289063 523.55390625 199.00078125 522.8578125 198.1640625 522.140625 C196.11246333 520.11124532 195.18956611 518.5737885 194 516 C192.36739286 514.62517293 190.69774938 513.29352333 189 512 C187.66666667 510.66666667 186.33333333 509.33333333 185 508 C184.01 507.34 183.02 506.68 182 506 C182 505.34 182 504.68 182 504 C181.34 504 180.68 504 180 504 C178.31066078 502.3563186 176.64740076 500.6857124 175 499 C172.12825593 496.54851116 169.45543273 494.53574788 166 493 C166 492.34 166 491.68 166 491 C165.01 490.67 164.02 490.34 163 490 C162.34 489.34 161.68 488.68 161 488 C160.01 487.67 159.02 487.34 158 487 C157.67 486.34 157.34 485.68 157 485 C154.43278413 483.38506762 151.79721542 481.92129897 149.15234375 480.4375 C148.08693359 479.7259375 148.08693359 479.7259375 147 479 C147 478.34 147 477.68 147 477 C146.071875 476.896875 145.14375 476.79375 144.1875 476.6875 C140.72921716 475.94159586 140.31910163 475.40762266 138 473 C135.49462546 471.6406708 133.00193125 470.36093106 130.4375 469.125 C128.98955565 468.41542107 127.54163894 467.70578574 126.09375 466.99609375 C125.39121094 466.65433105 124.68867187 466.31256836 123.96484375 465.96044922 C121.44298812 464.72772307 118.94037161 463.45824809 116.4375 462.1875 C109.52828161 458.4445844 109.52828161 458.4445844 102 457 C101.34 457 100.68 457 100 457 C99 456 98 455 97 454 C96.34 454 95.68 454 95 454 C95 453.34 95 452.68 95 452 C94.34 452 93.68 452 93 452 C92.67 452.66 92.34 453.32 92 454 C92 453.01 92 452.02 92 451 C91.4225 451.185625 90.845 451.37125 90.25 451.5625 C87.02159362 452.19024568 84.89514377 451.44757189 82 450 C82 449.34 82 448.68 82 448 C81.34 448 80.68 448 80 448 C80 448.66 80 449.32 80 450 C78 449.33333333 76 448.66666667 74 448 C74 447.34 74 446.68 74 446 C73.34 446 72.68 446 72 446 C72 446.66 72 447.32 72 448 C71.34 448 70.68 448 70 448 C70 447.01 70 446.02 70 445 C68.68 445.33 67.36 445.66 66 446 C66 445.34 66 444.68 66 444 C65.34 444 64.68 444 64 444 C64 444.66 64 445.32 64 446 C62.68 445.67 61.36 445.34 60 445 C60 444.34 60 443.68 60 443 C58.02 443.66 56.04 444.32 54 445 C54 444.01 54 443.02 54 442 C53.34 442.66 52.68 443.32 52 444 C49.375 444.125 49.375 444.125 47 444 C46.67 443.34 46.34 442.68 46 442 C43.69 442 41.38 442 39 442 C39 441.34 39 440.68 39 440 C38.175 440.33 37.35 440.66 36.5 441 C31.50091354 442.42831042 27.01276235 442.67092078 22 441 C22 440.34 22 439.68 22 439 C16.72 439.33 11.44 439.66 6 440 C6 440.66 6 441.32 6 442 C4.783125 441.979375 3.56625 441.95875 2.3125 441.9375 C-0.91977322 441.93175884 -3.84934741 442.21233685 -7 443 C-7 442.01 -7 441.02 -7 440 C-8.65 440 -10.3 440 -12 440 C-12 440.66 -12 441.32 -12 442 C-14.31 441.67 -16.62 441.34 -19 441 C-19.33 441.99 -19.66 442.98 -20 444 C-21.98 443.34 -23.96 442.68 -26 442 C-26 442.66 -26 443.32 -26 444 C-27.98 443.67 -29.96 443.34 -32 443 C-32.33 443.99 -32.66 444.98 -33 446 C-34.65 445.34 -36.3 444.68 -38 444 C-38 444.66 -38 445.32 -38 446 C-39.32 445.67 -40.64 445.34 -42 445 C-42 445.66 -42 446.32 -42 447 C-47.75 448.125 -47.75 448.125 -50 447 C-50 447.66 -50 448.32 -50 449 C-51.32 448.67 -52.64 448.34 -54 448 C-54.33 448.99 -54.66 449.98 -55 451 C-59 451 -59 451 -61 450 C-61 450.66 -61 451.32 -61 452 C-61.75925781 452.19335938 -62.51851562 452.38671875 -63.30078125 452.5859375 C-64.29464844 452.84632813 -65.28851563 453.10671875 -66.3125 453.375 C-67.79169922 453.75785156 -67.79169922 453.75785156 -69.30078125 454.1484375 C-72.1805816 454.91913174 -72.1805816 454.91913174 -75 457 C-76.01707031 457.26554687 -77.03414062 457.53109375 -78.08203125 457.8046875 C-83.90420474 459.36848811 -89.00251087 462.63128191 -94.23632812 465.54296875 C-95.45545898 466.20619141 -95.45545898 466.20619141 -96.69921875 466.8828125 C-97.42971436 467.28902832 -98.16020996 467.69524414 -98.9128418 468.11376953 C-101 469 -101 469 -105 469 C-105.33 469.66 -105.66 470.32 -106 471 C-107.7421875 472.2890625 -107.7421875 472.2890625 -109.875 473.625 C-110.57367188 474.07101562 -111.27234375 474.51703125 -111.9921875 474.9765625 C-114 476 -114 476 -117 476 C-117.33 476.66 -117.66 477.32 -118 478 C-120.3153836 479.50187045 -122.62776132 480.82482886 -125.125 482 C-127.17262218 483.09206516 -128.39912929 484.33242635 -130 486 C-131.31787285 487.02028865 -132.65210653 488.01971384 -134 489 C-135.33849671 489.99307821 -136.67151309 490.99357052 -138 492 C-138.825 492.61875 -139.65 493.2375 -140.5 493.875 C-143.09727192 495.93185255 -143.09727192 495.93185255 -145.0625 498.6875 C-147.14930857 501.17820701 -147.92597254 501.46999527 -151 502 C-151.33 502.66 -151.66 503.32 -152 504 C-152.66 504 -153.32 504 -154 504 C-154 504.66 -154 505.32 -154 506 C-154.66 506 -155.32 506 -156 506 C-156.28875 506.598125 -156.5775 507.19625 -156.875 507.8125 C-158 510 -158 510 -160 513 C-160.66 513.144375 -161.32 513.28875 -162 513.4375 C-162.66 513.623125 -163.32 513.80875 -164 514 C-164.29777344 514.60714844 -164.59554687 515.21429687 -164.90234375 515.83984375 C-166.14198152 518.27941559 -167.43618163 519.4292722 -169.5625 521.125 C-172.21025666 523.20903634 -172.21025666 523.20903634 -174 526 C-174.66 526 -175.32 526 -176 526 C-176.103125 526.5775 -176.20625 527.155 -176.3125 527.75 C-177.09764466 530.31956433 -178.377478 531.88366695 -180 534 C-180 534.66 -180 535.32 -180 536 C-180.99 536.33 -181.98 536.66 -183 537 C-184.38576923 538.62332967 -185.72641268 540.28724465 -187 542 C-186.67 542.66 -186.34 543.32 -186 544 C-186.99 544.33 -187.98 544.66 -189 545 C-191.22931824 546.81260132 -191.22931824 546.81260132 -193 549 C-193 549.99 -193 550.98 -193 552 C-194 553 -195 554 -196 555 C-197.61077479 557.97373807 -198.93041208 560.79123624 -200 564 C-201 565 -202 566 -203 567 C-205.88241593 571.38127222 -207.62965425 575.63435006 -209 580.6875 C-210 584 -210 584 -212 586 C-212.185625 586.86625 -212.185625 586.86625 -212.375 587.75 C-213 590 -213 590 -215 592.9375 C-216.94076183 595.90929155 -217.47379688 597.57967971 -218 601 C-218.64438717 602.67540664 -219.31246699 604.34183216 -220 606 C-220.67939174 607.99571323 -221.34561559 609.99594773 -222 612 C-222.66666667 614 -223.33333333 616 -224 618 C-224.66 618 -225.32 618 -226 618 C-225.34 619.65 -224.68 621.3 -224 623 C-224.66 623 -225.32 623 -226 623 C-226.185625 624.5778125 -226.185625 624.5778125 -226.375 626.1875 C-226.91478818 629.48020789 -227.73179598 631.95631034 -229 635 C-229 635.99 -229 636.98 -229 638 C-229.66 638 -230.32 638 -231 638 C-230.814375 638.5775 -230.62875 639.155 -230.4375 639.75 C-229.93948447 642.31122275 -230.28838837 643.50935931 -231 646 C-231.6025523 649.74921428 -232 653.19590849 -232 657 C-232.66 657 -233.32 657 -234 657 C-233.505 661.455 -233.505 661.455 -233 666 C-233.66 666 -234.32 666 -235 666 C-234.835 666.9075 -234.67 667.815 -234.5 668.75 C-233.71126689 674.13782475 -233.91974077 679.56912556 -234 685 C-234.33 685 -234.66 685 -235 685 C-235.33 686.98 -235.66 688.96 -236 691 C-239.1250056 692.04166853 -241.33772185 692.13906399 -244.6171875 692.16113281 C-245.76848145 692.17074036 -246.91977539 692.1803479 -248.10595703 692.19024658 C-249.34974121 692.19449646 -250.59352539 692.19874634 -251.875 692.203125 C-253.15101074 692.20882507 -254.42702148 692.21452515 -255.74169922 692.22039795 C-258.44176808 692.22985001 -261.14172571 692.23674626 -263.84179688 692.24023438 C-267.30212267 692.24572825 -270.7620568 692.26978059 -274.22225952 692.29820633 C-277.52314346 692.32129654 -280.82404657 692.32327924 -284.125 692.328125 C-285.36878418 692.3404718 -286.61256836 692.3528186 -287.89404297 692.36553955 C-289.04533691 692.36253845 -290.19663086 692.35953735 -291.3828125 692.35644531 C-292.39746582 692.36009094 -293.41211914 692.36373657 -294.45751953 692.36749268 C-297.35547807 691.94861884 -298.23203712 691.27391358 -300 689 C-299.67 688.01 -299.34 687.02 -299 686 C-298.9303224 684.49235087 -298.91552506 682.98175464 -298.9375 681.47265625 C-298.94523438 680.59802734 -298.95296875 679.72339844 -298.9609375 678.82226562 C-298.98692389 676.98632734 -299.01296532 675.15038984 -299.0390625 673.31445312 C-299.04679688 672.43853516 -299.05453125 671.56261719 -299.0625 670.66015625 C-299.07410156 669.86230713 -299.08570313 669.06445801 -299.09765625 668.24243164 C-299.0007796 666.01790166 -298.5612992 664.14625686 -298 662 C-297.96154557 660.00036972 -297.95455719 657.99948367 -298 656 C-297.34 656 -296.68 656 -296 656 C-296.185625 654.906875 -296.37125 653.81375 -296.5625 652.6875 C-297 649 -297 649 -296 646 C-296 645.01 -296 644.02 -296 643 C-295.34 643 -294.68 643 -294 643 C-294.495 640.03 -294.495 640.03 -295 637 C-294.34 637 -293.68 637 -293 637 C-293.185625 636.401875 -293.37125 635.80375 -293.5625 635.1875 C-294 633 -294 633 -293 630 C-293 629.01 -293 628.02 -293 627 C-292.34 627 -291.68 627 -291 627 C-291.33 625.35 -291.66 623.7 -292 622 C-291.34 622 -290.68 622 -290 622 C-290.185625 621.236875 -290.37125 620.47375 -290.5625 619.6875 C-291 617 -291 617 -290 614 C-289.34 614 -288.68 614 -288 614 C-288.33 612.68 -288.66 611.36 -289 610 C-288.34 610 -287.68 610 -287 610 C-287.185625 609.401875 -287.37125 608.80375 -287.5625 608.1875 C-288 606 -288 606 -287 603 C-286.34 603 -285.68 603 -285 603 C-285.20625 602.4225 -285.4125 601.845 -285.625 601.25 C-286.10169309 598.38984145 -285.39870728 597.50294987 -284 595 C-282.78715124 591.94570927 -282.78715124 591.94570927 -282 589 C-282.33 588.34 -282.66 587.68 -283 587 C-282.525625 586.608125 -282.05125 586.21625 -281.5625 585.8125 C-279.61279854 583.55084631 -279.54261914 581.91657787 -279 579 C-278.01712992 576.99152635 -277.01622658 574.99180409 -276 573 C-275.71125 572.0925 -275.4225 571.185 -275.125 570.25 C-273.80188547 566.42766913 -272.00508794 562.9836698 -270.16015625 559.390625 C-268.8888114 556.90825797 -268.8888114 556.90825797 -267.9375 553.75 C-266.79864253 550.40935141 -264.98065249 547.90908334 -263 545 C-262.67 544.175 -262.34 543.35 -262 542.5 C-260.74077199 539.35192998 -258.9045604 536.79732309 -257 534 C-256.62875 533.2575 -256.2575 532.515 -255.875 531.75 C-255 530 -255 530 -253 528 C-252.67 527.01 -252.34 526.02 -252 525 C-251.34 524.34 -250.68 523.68 -250 523 C-249.28083973 521.87376788 -248.595346 520.72561174 -247.9375 519.5625 C-247.59589844 518.96566406 -247.25429687 518.36882813 -246.90234375 517.75390625 C-245.86284095 515.84320638 -245.86284095 515.84320638 -245 513 C-244.01 512.34 -243.02 511.68 -242 511 C-240.95884159 509.69855198 -239.96113866 508.36161311 -239 507 C-237.46481253 504.95308337 -235.92926184 502.90749625 -234.375 500.875 C-232.95291706 499.04608117 -232.95291706 499.04608117 -232 497 C-231.34 497 -230.68 497 -230 497 C-229.773125 496.278125 -229.54625 495.55625 -229.3125 494.8125 C-227.75528356 491.47560763 -225.61945291 489.55051994 -223 487 C-223 486.34 -223 485.68 -223 485 C-221.35 484.34 -219.7 483.68 -218 483 C-218 482.34 -218 481.68 -218 481 C-217.0344529 479.96669521 -216.02855352 478.97060685 -215 478 C-214.1159863 476.96597185 -213.24141499 475.92381815 -212.375 474.875 C-209.08944568 470.99357688 -205.49776948 467.46265338 -201.85546875 463.91796875 C-199.93978207 462.12995862 -199.93978207 462.12995862 -199 460 C-198.195625 459.87625 -197.39125 459.7525 -196.5625 459.625 C-193.86497617 459.27833737 -193.86497617 459.27833737 -192.75 457.0625 C-192.5025 456.381875 -192.255 455.70125 -192 455 C-191.67 454.34 -191.34 453.68 -191 453 C-190.4225 452.896875 -189.845 452.79375 -189.25 452.6875 C-185.96128602 451.68261517 -184.34378626 449.46097558 -182 447 C-180.67607028 445.98758315 -179.34400833 444.98560611 -178 444 C-177.2265625 443.1646875 -177.2265625 443.1646875 -176.4375 442.3125 C-175 441 -175 441 -172 441 C-171.67 440.01 -171.34 439.02 -171 438 C-170.01 438 -169.02 438 -168 438 C-167.67 437.01 -167.34 436.02 -167 435 C-166.01 435 -165.02 435 -164 435 C-163.67 434.01 -163.34 433.02 -163 432 C-160.84765625 430.38671875 -160.84765625 430.38671875 -158.0625 428.6875 C-157.06605469 428.07519531 -156.06960938 427.46289062 -155.04296875 426.83203125 C-154.03878906 426.22746094 -153.03460938 425.62289063 -152 425 C-151.12988281 424.46761719 -150.25976562 423.93523437 -149.36328125 423.38671875 C-146.92091466 421.90289478 -144.46544074 420.44512146 -142 419 C-141.16855469 418.51015625 -140.33710938 418.0203125 -139.48046875 417.515625 C-138.68253906 417.05671875 -137.88460937 416.5978125 -137.0625 416.125 C-136.35222656 415.71507812 -135.64195312 415.30515625 -134.91015625 414.8828125 C-133 414 -133 414 -130 414 C-129.67 413.34 -129.34 412.68 -129 412 C-127.00854609 410.98308736 -125.00812926 409.98357352 -123 409 C-122.34 408.34 -121.68 407.68 -121 407 C-118.66989091 406.32215008 -116.33640176 405.65583207 -114 405 C-113.01 404.34 -112.02 403.68 -111 403 C-112.06201737 400.77260299 -112.06201737 400.77260299 -114 398 C-114.99 398 -115.98 398 -117 398 C-117.66 396.68 -118.32 395.36 -119 394 C-119.66 394.33 -120.32 394.66 -121 395 C-121.78375 394.175 -122.5675 393.35 -123.375 392.5 C-125.63721264 389.77011494 -125.63721264 389.77011494 -128 390 C-128.103125 389.401875 -128.20625 388.80375 -128.3125 388.1875 C-129.1141384 385.63683235 -129.90032564 384.63308005 -132 383 C-132.62358398 382.87093262 -133.24716797 382.74186523 -133.88964844 382.60888672 C-136.45182587 381.86963747 -137.57018163 380.8169904 -139.453125 378.9453125 C-140.38125 378.02298828 -140.38125 378.02298828 -141.328125 377.08203125 C-142.27945313 376.11330078 -142.27945313 376.11330078 -143.25 375.125 C-143.8996875 374.48691406 -144.549375 373.84882812 -145.21875 373.19140625 C-145.83234375 372.57394531 -146.4459375 371.95648437 -147.078125 371.3203125 C-147.63918945 370.75586426 -148.20025391 370.19141602 -148.77832031 369.60986328 C-150 368 -150 368 -150 365 C-151.6454378 363.31237149 -153.31288577 361.6459651 -155 360 C-155.33 359.01 -155.66 358.02 -156 357 C-158.00016466 355.79117904 -158.00016466 355.79117904 -160 355 C-160 354.34 -160 353.68 -160 353 C-160.94875 352.2575 -161.8975 351.515 -162.875 350.75 C-166.08754141 348.21457504 -166.86173812 345.94013729 -168 342 C-168.99 341.34 -169.98 340.68 -171 340 C-171 339.01 -171 338.02 -171 337 C-171.598125 336.835 -172.19625 336.67 -172.8125 336.5 C-175.77129156 334.47111436 -176.22772689 332.31274186 -177.2890625 328.97265625 C-178.00988886 326.72545002 -178.00988886 326.72545002 -180 324 C-180 322.68 -180 321.36 -180 320 C-180.66 320 -181.32 320 -182 320 C-182.79311367 318.27149655 -183.5844259 316.54216646 -184.375 314.8125 C-184.81585938 313.84957031 -185.25671875 312.88664062 -185.7109375 311.89453125 C-186.53746645 310.03859807 -187.318281 308.16122187 -188.0390625 306.26171875 C-188.89473151 303.85573797 -188.89473151 303.85573797 -191 302 C-191 300.68 -191 299.36 -191 298 C-191.45375 297.0925 -191.9075 296.185 -192.375 295.25 C-194.27176737 291.45646526 -195.16879863 288.15600686 -196 284 C-195.67 283.34 -195.34 282.68 -195 282 C-195.66 282 -196.32 282 -197 282 C-198.125 277.25 -198.125 277.25 -197 275 C-197.66 275 -198.32 275 -199 275 C-198.67 273.68 -198.34 272.36 -198 271 C-198.66 271 -199.32 271 -200 271 C-199.67 269.68 -199.34 268.36 -199 267 C-199.66 267 -200.32 267 -201 267 C-202.125 259.25 -202.125 259.25 -201 257 C-201.66 257 -202.32 257 -203 257 C-202.67 254.69 -202.34 252.38 -202 250 C-202.66 250 -203.32 250 -204 250 C-203.505 246.04 -203.505 246.04 -203 242 C-203.66 242 -204.32 242 -205 242 C-204.98839844 241.00097656 -204.97679687 240.00195312 -204.96484375 238.97265625 C-204.95582031 237.68230469 -204.94679688 236.39195312 -204.9375 235.0625 C-204.92589844 233.77472656 -204.91429687 232.48695313 -204.90234375 231.16015625 C-204.63467451 228.13701597 -204.63467451 228.13701597 -206 227 C-206.09823937 225.33570949 -206.12973631 223.66718069 -206.125 222 C-206.12886719 220.63875 -206.12886719 220.63875 -206.1328125 219.25 C-206 217 -206 217 -205 216 C-204.92674832 213.13732433 -204.90761795 210.299281 -204.9375 207.4375 C-204.94201172 206.63119141 -204.94652344 205.82488281 -204.95117188 204.99414062 C-204.96299482 202.99606244 -204.98093086 200.99802217 -205 199 C-204.34 199 -203.68 199 -203 199 C-203.495 195.535 -203.495 195.535 -204 192 C-203.34 192 -202.68 192 -202 192 C-202.495 188.535 -202.495 188.535 -203 185 C-202.34 185 -201.68 185 -201 185 C-201.495 182.525 -201.495 182.525 -202 180 C-201.34 180 -200.68 180 -200 180 C-200.495 177.525 -200.495 177.525 -201 175 C-200.34 175 -199.68 175 -199 175 C-199.33 173.68 -199.66 172.36 -200 171 C-199.34 171 -198.68 171 -198 171 C-198.33 169.68 -198.66 168.36 -199 167 C-198.34 167 -197.68 167 -197 167 C-197.33 165.68 -197.66 164.36 -198 163 C-197.34 163 -196.68 163 -196 163 C-196.20238281 162.43925781 -196.40476562 161.87851562 -196.61328125 161.30078125 C-197.10988322 158.34625036 -196.39913924 156.90619583 -195.1875 154.1875 C-193.9448002 151.28786713 -192.89512962 148.61547526 -192.0625 145.5625 C-190.19855143 139.3127901 -187.26789235 133.48882573 -184.3125 127.6875 C-182.91166283 124.99699256 -182.91166283 124.99699256 -182.0625 121.9375 C-180.87153547 118.64483335 -179.21732774 116.68766999 -177 114 C-175.98377342 112.00819591 -174.98287008 110.00847365 -174 108 C-173 106.66666667 -172 105.33333333 -171 104 C-170.54625 103.05125 -170.0925 102.1025 -169.625 101.125 C-167.76506818 97.54820803 -165.64364899 95.04019633 -163 92 C-161.50420107 90.04395525 -160.05004309 88.07051527 -158.625 86.0625 C-157 84 -157 84 -154.375 81.5 C-152.13817021 79.14544233 -151.34933379 78.14400411 -151 75 C-150.34 75 -149.68 75 -149 75 C-149 74.34 -149 73.68 -149 73 C-147.4609375 71.51953125 -147.4609375 71.51953125 -145.375 69.8125 C-142.55269874 67.43320546 -140.12000148 65.06735825 -137.8125 62.1875 C-135.42671389 59.27942017 -133.56512078 58.27978695 -130 57 C-127.65689227 54.8242571 -125.50779019 52.56638136 -123.375 50.1875 C-122 49 -122 49 -119 49 C-118.67 48.01 -118.34 47.02 -118 46 C-115.41927097 43.67734388 -114.54823932 43 -111 43 C-110.67 42.01 -110.34 41.02 -110 40 C-107.671875 38.2109375 -107.671875 38.2109375 -104.75 36.375 C-103.79609375 35.76398438 -102.8421875 35.15296875 -101.859375 34.5234375 C-99.13719932 33.073098 -96.99227435 32.5623778 -94 32 C-93.67 31.34 -93.34 30.68 -93 30 C-90.75343171 28.40656936 -88.4712584 27.25730691 -86 26 C-85.34 26.33 -84.68 26.66 -84 27 C-83.67 26.01 -83.34 25.02 -83 24 C-81.01463373 23.29094062 -79.01089078 22.63305821 -77 22 C-75.2591285 20.98712931 -73.51847495 19.97372073 -71.7890625 18.94140625 C-69.00900914 17.47853974 -66.02071557 16.82383152 -63 16 C-62.0925 15.525625 -61.185 15.05125 -60.25 14.5625 C-55.71197298 12.38075624 -50.95006249 10.93824714 -46 10 C-45.01 10.495 -45.01 10.495 -44 11 C-44 10.34 -44 9.68 -44 9 C-43.05125 8.87625 -42.1025 8.7525 -41.125 8.625 C-37.91332809 8.28312823 -37.91332809 8.28312823 -36 6 C-35.01 6.66 -34.02 7.32 -33 8 C-33 7.34 -33 6.68 -33 6 C-31.35 6.33 -29.7 6.66 -28 7 C-28 6.34 -28 5.68 -28 5 C-26.02 5.33 -24.04 5.66 -22 6 C-22 5.34 -22 4.68 -22 4 C-20.02 4.33 -18.04 4.66 -16 5 C-16 4.34 -16 3.68 -16 3 C-12.04 3.495 -12.04 3.495 -8 4 C-8 3.34 -8 2.68 -8 2 C-5.09399739 0.74335022 -3.20395416 0 0 0 Z M-3 65 C-2.67 65.66 -2.34 66.32 -2 67 C-5.04386724 67.08226668 -7.07175348 66.97608217 -10 66 C-10 66.66 -10 67.32 -10 68 C-11.98 67.67 -13.96 67.34 -16 67 C-16 67.66 -16 68.32 -16 69 C-17.65 68.67 -19.3 68.34 -21 68 C-21 68.66 -21 69.32 -21 70 C-22.32 69.67 -23.64 69.34 -25 69 C-25 69.66 -25 70.32 -25 71 C-25.598125 70.814375 -26.19625 70.62875 -26.8125 70.4375 C-29.16408762 69.77906313 -29.16408762 69.77906313 -32 71 C-32 71.66 -32 72.32 -32 73 C-32.99 72.67 -33.98 72.34 -35 72 C-35 72.66 -35 73.32 -35 74 C-35.99 73.67 -36.98 73.34 -38 73 C-38 73.66 -38 74.32 -38 75 C-38.99 74.67 -39.98 74.34 -41 74 C-41 74.66 -41 75.32 -41 76 C-42.65 76 -44.3 76 -46 76 C-46 76.66 -46 77.32 -46 78 C-47.65 78 -49.3 78 -51 78 C-51 78.66 -51 79.32 -51 80 C-52.32 80 -53.64 80 -55 80 C-55 80.66 -55 81.32 -55 82 C-56.32 82 -57.64 82 -59 82 C-59 82.66 -59 83.32 -59 84 C-59.99 84 -60.98 84 -62 84 C-62.33 84.66 -62.66 85.32 -63 86 C-63.598125 86.144375 -64.19625 86.28875 -64.8125 86.4375 C-67.43786138 87.11259293 -68.87590207 88.34054849 -71 90 C-71.721875 90.309375 -72.44375 90.61875 -73.1875 90.9375 C-75.20746992 91.85973865 -75.20746992 91.85973865 -75.75 94.125 C-75.8325 94.74375 -75.915 95.3625 -76 96 C-77.485 95.505 -77.485 95.505 -79 95 C-79.61875 95.6496875 -79.61875 95.6496875 -80.25 96.3125 C-82 98 -82 98 -83.875 99.375 C-86.13941989 101.02521661 -86.13941989 101.02521661 -88.375 103.4375 C-91 106 -91 106 -94.0625 108 C-97.08006738 110.05451396 -98.94660605 111.99888577 -101 115 C-101 115.66 -101 116.32 -101 117 C-102.66666667 118 -104.33333333 119 -106 120 C-106 120.66 -106 121.32 -106 122 C-106.99 122.495 -106.99 122.495 -108 123 C-109.5685595 124.94501378 -110.88186506 126.76373012 -112 129 C-112.99 129.99 -112.99 129.99 -114 131 C-115.01241685 132.32392972 -116.01439389 133.65599167 -117 135 C-116.34 135.33 -115.68 135.66 -115 136 C-115.8971875 136.5878125 -115.8971875 136.5878125 -116.8125 137.1875 C-119.25511232 139.21137878 -120.50112814 141.22708706 -122 144 C-121.505 144.495 -121.505 144.495 -121 145 C-121.66 145.61875 -122.32 146.2375 -123 146.875 C-125.2284549 148.75637427 -125.2284549 148.75637427 -125 151 C-125.99 151.99 -125.99 151.99 -127 153 C-127 154.32 -127 155.64 -127 157 C-127.99 157.495 -127.99 157.495 -129 158 C-129 158.99 -129 159.98 -129 161 C-129.99 161.99 -129.99 161.99 -131 163 C-131 164.32 -131 165.64 -131 167 C-131.99 167.495 -131.99 167.495 -133 168 C-132.67 168.66 -132.34 169.32 -132 170 C-132.99 170.495 -132.99 170.495 -134 171 C-133.67 171.33 -133.34 171.66 -133 172 C-133.99 172.99 -133.99 172.99 -135 174 C-134.67 174.66 -134.34 175.32 -134 176 C-134.66 176 -135.32 176 -136 176 C-135.67 177.32 -135.34 178.64 -135 180 C-135.99 180.495 -135.99 180.495 -137 181 C-136.67 181.99 -136.34 182.98 -136 184 C-136.66 184 -137.32 184 -138 184 C-137.67 185.32 -137.34 186.64 -137 188 C-137.66 188 -138.32 188 -139 188 C-138.979375 188.763125 -138.95875 189.52625 -138.9375 190.3125 C-139 193 -139 193 -140 196 C-139.61067144 198.14255793 -139.61067144 198.14255793 -139 200 C-139.66 200 -140.32 200 -141 200 C-141 203.63 -141 207.26 -141 211 C-141.33 211 -141.66 211 -142 211 C-142 218.26 -142 225.52 -142 233 C-141.34 233 -140.68 233 -140 233 C-140.12568359 234.01320313 -140.12568359 234.01320313 -140.25390625 235.046875 C-140.35574219 235.93890625 -140.45757812 236.8309375 -140.5625 237.75 C-140.66691406 238.63171875 -140.77132812 239.5134375 -140.87890625 240.421875 C-140.99668783 242.92948289 -140.69279488 244.61370654 -140 247 C-139.60662402 249.66135848 -139.3118246 252.32721773 -139 255 C-138.34 255 -137.68 255 -137 255 C-137.495 256.98 -137.495 256.98 -138 259 C-137.34 259 -136.68 259 -136 259 C-136.495 260.98 -136.495 260.98 -137 263 C-136.34 263 -135.68 263 -135 263 C-135.185625 263.598125 -135.37125 264.19625 -135.5625 264.8125 C-136.22093687 267.16408762 -136.22093687 267.16408762 -135 270 C-134.34 270 -133.68 270 -133 270 C-133.33 270.99 -133.66 271.98 -134 273 C-133.12085312 275.6569191 -133.12085312 275.6569191 -132 278 C-131.34 278 -130.68 278 -130 278 C-130.33 278.99 -130.66 279.98 -131 281 C-130.08933167 283.39205607 -130.08933167 283.39205607 -128.6875 285.875 C-126.91415967 289.19810767 -125.34402421 292.47903516 -124 296 C-123.34 296 -122.68 296 -122 296 C-121.896875 296.721875 -121.79375 297.44375 -121.6875 298.1875 C-120.93206053 301.27793421 -119.84468685 303.41743841 -118 306 C-117.34 306 -116.68 306 -116 306 C-116 306.99 -116 307.98 -116 309 C-115.34 309.66 -114.68 310.32 -114 311 C-113.2884375 312.2065625 -113.2884375 312.2065625 -112.5625 313.4375 C-111.15585434 315.74439889 -109.92095909 317.15292395 -108 319 C-105.61505336 321.81301398 -103.28653083 324.62103988 -101.0625 327.5625 C-98.63585536 330.43035275 -95.91235639 332.63371043 -93 335 C-91.66666667 336.33333333 -90.33333333 337.66666667 -89 339 C-85.74424531 341.78095713 -82.45253464 344.46814126 -79 347 C-76.83296759 348.59340618 -74.90511548 350.09488452 -73 352 C-72.01 352 -71.02 352 -70 352 C-69.67 352.66 -69.34 353.32 -69 354 C-68.34 354.165 -67.68 354.33 -67 354.5 C-66.34 354.665 -65.68 354.83 -65 355 C-64.67 355.66 -64.34 356.32 -64 357 C-59.85171573 360.16059754 -56.10737377 361.91959401 -51 363 C-50.34 362.67 -49.68 362.34 -49 362 C-48.505 363.485 -48.505 363.485 -48 365 C-47.34 365.33 -46.68 365.66 -46 366 C-45.34 365.67 -44.68 365.34 -44 365 C-43.67 365.66 -43.34 366.32 -43 367 C-42.01 367 -41.02 367 -40 367 C-38.68 367 -37.36 367 -36 367 C-35.505 368.485 -35.505 368.485 -35 370 C-33.35 369.67 -31.7 369.34 -30 369 C-30 369.99 -30 370.98 -30 372 C-28.68 371.67 -27.36 371.34 -26 371 C-26 371.66 -26 372.32 -26 373 C-25.01 372.67 -24.02 372.34 -23 372 C-22.67 372.66 -22.34 373.32 -22 374 C-20.68 373.67 -19.36 373.34 -18 373 C-18 373.66 -18 374.32 -18 375 C-16.02 374.67 -14.04 374.34 -12 374 C-11.67 374.66 -11.34 375.32 -11 376 C-8.69 375.67 -6.38 375.34 -4 375 C-4 375.66 -4 376.32 -4 377 C-1.50715149 377.07122424 0.72221689 377.06379468 3.16015625 376.50390625 C6.86220198 375.84700955 10.50403418 375.85276386 14.25 375.875 C15.38127319 375.8757251 15.38127319 375.8757251 16.53540039 375.87646484 C20.55112999 375.90156586 24.45236895 376.07891353 28.4375 376.625 C29.613125 376.74875 30.78875 376.8725 32 377 C32.66 376.34 33.32 375.68 34 375 C35.671549 375.30791692 37.33805547 375.64386903 39 376 C41.09821215 375.60061233 41.09821215 375.60061233 43 375 C43.99 375 44.98 375 46 375 C46 374.34 46 373.68 46 373 C47.32 373.33 48.64 373.66 50 374 C50 373.34 50 372.68 50 372 C51.32 372.33 52.64 372.66 54 373 C54 372.34 54 371.68 54 371 C55.32 371.33 56.64 371.66 58 372 C58 371.34 58 370.68 58 370 C58.7734375 370.3403125 58.7734375 370.3403125 59.5625 370.6875 C63.27686654 371.16370084 65.73133248 369.66517025 69 368 C69.33 367.34 69.66 366.68 70 366 C70.99 366.33 71.98 366.66 73 367 C73.66 366.67 74.32 366.34 75 366 C75 365.34 75 364.68 75 364 C75.99 364.33 76.98 364.66 78 365 C80.10234944 364.25148618 80.10234944 364.25148618 82.1875 363.0625 C82.90292969 362.68222656 83.61835937 362.30195312 84.35546875 361.91015625 C85.16951172 361.45962891 85.16951172 361.45962891 86 361 C86 360.34 86 359.68 86 359 C87.65 358.67 89.3 358.34 91 358 C91 357.34 91 356.68 91 356 C92.65 355.67 94.3 355.34 96 355 C96 354.34 96 353.68 96 353 C96.99 353 97.98 353 99 353 C99 352.34 99 351.68 99 351 C100.423125 350.566875 100.423125 350.566875 101.875 350.125 C105.05211578 349.23174891 105.05211578 349.23174891 107 347 C108.33333333 346 109.66666667 345 111 344 C115.0594361 340.99124105 115.0594361 340.99124105 118 337 C118.66 337 119.32 337 120 337 C120 336.34 120 335.68 120 335 C120.66 335 121.32 335 122 335 C123.50846152 333.47379124 123.50846152 333.47379124 125 331.5625 C127.79661017 328.10169492 127.79661017 328.10169492 130 327 C130 326.34 130 325.68 130 325 C130.99 324.67 131.98 324.34 133 324 C133.33 323.01 133.66 322.02 134 321 C135.30973998 319.6434836 136.64802142 318.31442362 138 317 C141.59578022 313.49309466 141.59578022 313.49309466 143 309 C143.66 308.34 144.32 307.68 145 307 C146.71503261 304.32454913 147.9919071 302.0242787 149 299 C149.515625 298.505 150.03125 298.01 150.5625 297.5 C152.34595268 295.98527194 152.34595268 295.98527194 152 293 C152.66 292.34 153.32 291.68 154 291 C154 290.34 154 289.68 154 289 C154.66 288.34 155.32 287.68 156 287 C156 285.68 156 284.36 156 283 C156.66 282.67 157.32 282.34 158 282 C159.78604366 278.78512142 161.47540376 275.6721737 162 272 C161.67 271.34 161.34 270.68 161 270 C161.66 269.67 162.32 269.34 163 269 C162.67 268.34 162.34 267.68 162 267 C162.66 267 163.32 267 164 267 C163.67 265.68 163.34 264.36 163 263 C163.66 263 164.32 263 165 263 C164.67 261.68 164.34 260.36 164 259 C164.66 259 165.32 259 166 259 C166.93786082 253.94990405 166.93786082 253.94990405 166 249 C166.66 249 167.32 249 168 249 C167.67 246.69 167.34 244.38 167 242 C167.66 242 168.32 242 169 242 C168.98839844 241.21753906 168.97679687 240.43507813 168.96484375 239.62890625 C168.95130859 238.11103516 168.95130859 238.11103516 168.9375 236.5625 C168.92589844 235.55316406 168.91429687 234.54382813 168.90234375 233.50390625 C169 231 169 231 170 230 C170.07325168 227.13732433 170.09238205 224.299281 170.0625 221.4375 C170.05573242 220.22803711 170.05573242 220.22803711 170.04882812 218.99414062 C170.03700518 216.99606244 170.01906914 214.99802217 170 213 C169.34 213 168.68 213 168 213 C167.85714286 204.42857143 167.85714286 204.42857143 169 201 C168.34 201 167.68 201 167 201 C167.33 198.36 167.66 195.72 168 193 C167.34 192.67 166.68 192.34 166 192 C166.33 190.68 166.66 189.36 167 188 C166.34 188 165.68 188 165 188 C165.33 186.35 165.66 184.7 166 183 C165.34 182.67 164.68 182.34 164 182 C164.33 181.01 164.66 180.02 165 179 C164.34 179 163.68 179 163 179 C163.29003906 178.15501953 163.29003906 178.15501953 163.5859375 177.29296875 C164.09055627 174.4985233 163.58154874 172.96714214 162.625 170.3125 C162.34914063 169.52488281 162.07328125 168.73726563 161.7890625 167.92578125 C160.78400931 165.4728544 160.3854792 165.1927396 158 164 C158.33 163.01 158.66 162.02 159 161 C158.12516085 158.83284443 158.12516085 158.83284443 157 157 C156.34 157 155.68 157 155 157 C155.33 156.01 155.66 155.02 156 154 C155.25148618 151.89765056 155.25148618 151.89765056 154.0625 149.8125 C153.68222656 149.09707031 153.30195312 148.38164062 152.91015625 147.64453125 C152.45962891 146.83048828 152.45962891 146.83048828 152 146 C151.34 146 150.68 146 150 146 C149.896875 145.2575 149.79375 144.515 149.6875 143.75 C148.94892596 140.79570382 148.01234106 139.25382199 146 137 C145.34 136.67 144.68 136.34 144 136 C144 135.01 144 134.02 144 133 C143.34 133 142.68 133 142 133 C142 132.01 142 131.02 142 130 C141.34 129.34 140.68 128.68 140 128 C139.67 127.34 139.34 126.68 139 126 C137.68 126 136.36 126 135 126 C135.33 124.68 135.66 123.36 136 122 C135.01 121.67 134.02 121.34 133 121 C131.97862543 119.34634594 130.98387706 117.67623498 130 116 C126.73804546 111.68854704 123.73648266 108.67186201 119 106 C117.31237149 104.3545622 115.6459651 102.68711423 114 101 C110.68966618 98.20935253 110.68966618 98.20935253 107 96 C106.01 95.01 106.01 95.01 105 94 C102.32596931 91.77164109 100.34765154 90.80805382 97 90 C96.67 89.34 96.34 88.68 96 88 C93.03635059 86.38932097 90.2012713 85.06709043 87 84 C86.67 83.34 86.34 82.68 86 82 C83.85118612 80.75230162 82.50320403 80 80 80 C79.01 79.01 79.01 79.01 78 78 C76.68 78 75.36 78 74 78 C73.67 77.34 73.34 76.68 73 76 C72.01 75.505 72.01 75.505 71 75 C70.34 75.33 69.68 75.66 69 76 C68.67 75.34 68.34 74.68 68 74 C67.34 74.33 66.68 74.66 66 75 C65.67 74.34 65.34 73.68 65 73 C64.01 73 63.02 73 62 73 C61.67 72.34 61.34 71.68 61 71 C59.68 71.33 58.36 71.66 57 72 C56.67 71.34 56.34 70.68 56 70 C56 70.66 56 71.32 56 72 C55.01 71.01 55.01 71.01 54 70 C53.01 69.505 53.01 69.505 52 69 C51.34 69.33 50.68 69.66 50 70 C50 69.34 50 68.68 50 68 C49.34 68 48.68 68 48 68 C48 68.66 48 69.32 48 70 C47.01 69.34 46.02 68.68 45 68 C42.50907189 66.75453595 41.58919267 67.2232422 39 68 C39 67.34 39 66.68 39 66 C38.01 66 37.02 66 36 66 C36 66.66 36 67.32 36 68 C35.01 67.67 34.02 67.34 33 67 C32.67 66.34 32.34 65.68 32 65 C30.1873655 65.14415198 28.37489978 65.29042636 26.5625 65.4375 C24.91701172 65.57091797 24.91701172 65.57091797 23.23828125 65.70703125 C20.56011411 65.94932623 17.91391535 66.26576798 15.25 66.625 C10.98255514 67.12338772 7.22744913 66.75490163 3 66 C2.67 65.67 2.34 65.34 2 65 C0.33382885 64.95936168 -1.33388095 64.957279 -3 65 Z M-39 367 C-38 369 -38 369 -38 369 Z M-33 369 C-32 371 -32 371 -32 371 Z " fill="#848483" transform="translate(486,154)"/>
<path d="M0 0 C0.66 0 1.32 0 2 0 C2.46084517 6.00660911 1.13776299 9.68519078 -1.6875 14.9375 C-2.05254639 15.64044189 -2.41759277 16.34338379 -2.79370117 17.06762695 C-5.31158261 21.8635651 -8.01408663 26.47847404 -11 31 C-11.45375 31.804375 -11.9075 32.60875 -12.375 33.4375 C-19.18380062 44.17445483 -19.18380062 44.17445483 -24.4375 46.5625 C-25.283125 46.706875 -26.12875 46.85125 -27 47 C-26.236875 46.0925 -25.47375 45.185 -24.6875 44.25 C-18.14532335 36.38468651 -12.94432354 27.88864708 -8.375 18.75 C-7 16 -7 16 -5.4375 13.5 C-3.84684935 10.73365104 -2.95038124 8.04121997 -2 5 C-1.34588315 3.32836805 -0.68346682 1.65984798 0 0 Z " fill="#A5A3A2" transform="translate(645,430)"/>
<path d="M0 0 C-0.56079711 3.75817767 -2.07779791 5.37530231 -4.8125 7.9375 C-7.05754151 10.09115044 -9.08294619 12.1062748 -11 14.5625 C-12.82787598 16.79022385 -14.61192948 18.41128237 -16.8125 20.25 C-21.22981628 24.00430445 -24.60642842 28.32323417 -28 33 C-28.99 32.67 -29.98 32.34 -31 32 C-30.566875 31.5875 -30.13375 31.175 -29.6875 30.75 C-27.97061577 29.04778356 -27.97061577 29.04778356 -26.625 27.125 C-25 25 -25 25 -22.375 22.5 C-20.13817021 20.14544233 -19.34933379 19.14400411 -19 16 C-18.34 16 -17.68 16 -17 16 C-17 15.34 -17 14.68 -17 14 C-15.4609375 12.51953125 -15.4609375 12.51953125 -13.375 10.8125 C-9.91601089 7.8983782 -7.07320295 4.86907548 -4.32421875 1.28515625 C-3 0 -3 0 0 0 Z " fill="#A4A1A0" transform="translate(354,213)"/>
<path d="M0 0 C2.39355247 2.04850091 3.83762476 3.32228058 4.58300781 6.43334961 C4.62264648 7.35124268 4.66228516 8.26913574 4.703125 9.21484375 C4.75791016 10.27558105 4.81269531 11.33631836 4.86914062 12.42919922 C4.91232422 13.60756348 4.95550781 14.78592773 5 16 C5.06896484 17.29566895 5.13792969 18.59133789 5.20898438 19.92626953 C5.39462817 23.42070742 5.53996656 26.91534481 5.66748047 30.41235352 C5.72312208 31.86216325 5.78544386 33.31173004 5.85400391 34.76098633 C5.95401798 36.88332294 6.03394793 39.00557113 6.109375 41.12890625 C6.16061523 42.37744385 6.21185547 43.62598145 6.26464844 44.91235352 C6 48 6 48 4.49316406 49.92944336 C4.00041992 50.28272705 3.50767578 50.63601074 3 51 C2 50 2 50 1.8671875 48.1875 C1.86976563 47.465625 1.87234375 46.74375 1.875 46 C1.87113281 44.9171875 1.87113281 44.9171875 1.8671875 43.8125 C2 42 2 42 3 41 C3.23701239 38.14122091 3.42219182 35.30116703 3.5625 32.4375 C3.62727539 31.22803711 3.62727539 31.22803711 3.69335938 29.99414062 C3.79975262 27.99631195 3.90040888 25.9981793 4 24 C3.34 24 2.68 24 2 24 C0.57142857 15.42857143 0.57142857 15.42857143 3 12 C2.34 12 1.68 12 1 12 C1.04125 10.88625 1.0825 9.7725 1.125 8.625 C1.41121859 4.95633975 1.41121859 4.95633975 -1 3 C-0.67 2.01 -0.34 1.02 0 0 Z " fill="#B9B7B5" transform="translate(652,343)"/>
<path d="M0 0 C0.69371201 -0.0004985 1.38742401 -0.00099701 2.10215759 -0.00151062 C3.56203084 0.00082035 5.02190883 0.01049104 6.48168945 0.02709961 C8.71146673 0.05074544 10.94005054 0.04764703 13.16992188 0.04101562 C25.05964089 0.08761966 25.05964089 0.08761966 28.65234375 2.36328125 C20.35562208 3.80982782 12.98886387 4.57527042 4.65234375 3.36328125 C3.66234375 3.36328125 2.67234375 3.36328125 1.65234375 3.36328125 C1.65234375 3.69328125 1.65234375 4.02328125 1.65234375 4.36328125 C-4.97265625 4.61328125 -4.97265625 4.61328125 -8.34765625 2.36328125 C-8.34765625 3.02328125 -8.34765625 3.68328125 -8.34765625 4.36328125 C-9.66765625 4.03328125 -10.98765625 3.70328125 -12.34765625 3.36328125 C-8.15544124 0.32857698 -5.12586297 -0.0118543 0 0 Z " fill="#8C8B8A" transform="translate(484.34765625,217.63671875)"/>
<path d="M0 0 C0.66 0 1.32 0 2 0 C1.67 1.98 1.34 3.96 1 6 C0.34 6 -0.32 6 -1 6 C-1.15637939 6.53874756 -1.31275879 7.07749512 -1.47387695 7.63256836 C-3.36067439 13.73397906 -6.0029589 19.04293162 -9.1875 24.5625 C-9.65091797 25.38041016 -10.11433594 26.19832031 -10.59179688 27.04101562 C-11.72088327 29.03146689 -12.85695355 31.01754384 -14 33 C-14.99 32.67 -15.98 32.34 -17 32 C-16.66226562 31.34773438 -16.32453125 30.69546875 -15.9765625 30.0234375 C-13.14457844 24.48837152 -13.14457844 24.48837152 -10.9375 18.6875 C-9.828115 15.507263 -8.13455853 13.58734367 -6 11 C-4.98377342 9.00819591 -3.98287008 7.00847365 -3 5 C-2.01755155 3.65368175 -1.02323436 2.31558703 0 1 C0 0.67 0 0.34 0 0 Z " fill="#A9A7A6" transform="translate(315,257)"/>
<path d="M0 0 C3.41664873 -0.02908357 6.8332655 -0.04682691 10.25 -0.0625 C11.70212891 -0.07506836 11.70212891 -0.07506836 13.18359375 -0.08789062 C14.11816406 -0.09111328 15.05273438 -0.09433594 16.015625 -0.09765625 C16.87446289 -0.10289307 17.73330078 -0.10812988 18.61816406 -0.11352539 C20.88670744 -0.00539986 22.82631715 0.36417577 25 1 C25 1.66 25 2.32 25 3 C20.85932303 4.15547075 16.83457849 4.18385177 12.5625 4.1875 C11.81162109 4.19974609 11.06074219 4.21199219 10.28710938 4.22460938 C6.06352352 4.2357534 2.85696284 3.9399833 -1 2 C-0.67 1.34 -0.34 0.68 0 0 Z " fill="#969693" transform="translate(488,529)"/>
<path d="M0 0 C0.66 0 1.32 0 2 0 C2 14.19 2 28.38 2 43 C1.34 43 0.68 43 0 43 C0.01160156 42.00097656 0.02320313 41.00195312 0.03515625 39.97265625 C0.04417969 38.68230469 0.05320312 37.39195312 0.0625 36.0625 C0.07990234 34.13083984 0.07990234 34.13083984 0.09765625 32.16015625 C0.36532549 29.13701597 0.36532549 29.13701597 -1 28 C-1.09823937 26.33570949 -1.12973631 24.66718069 -1.125 23 C-1.12757813 22.0925 -1.13015625 21.185 -1.1328125 20.25 C-1 18 -1 18 0 17 C0.07325168 14.13732433 0.09238205 11.299281 0.0625 8.4375 C0.05798828 7.63119141 0.05347656 6.82488281 0.04882812 5.99414062 C0.03700518 3.99606244 0.01906914 1.99802217 0 0 Z " fill="#CECCCB" transform="translate(281,353)"/>
<path d="M0 0 C0 0.99 0 1.98 0 3 C1.32 3.33 2.64 3.66 4 4 C1.85423262 6.14576738 -2.88349221 5.3755459 -5.875 5.5 C-7.51839798 5.56900738 -9.1616435 5.64177379 -10.8046875 5.71875 C-11.53671387 5.74904297 -12.26874023 5.77933594 -13.02294922 5.81054688 C-15.21061184 5.94559746 -15.21061184 5.94559746 -18 7 C-19.72795352 7.06802967 -21.45835365 7.08495645 -23.1875 7.0625 C-24.53908203 7.04896484 -24.53908203 7.04896484 -25.91796875 7.03515625 C-26.60503906 7.02355469 -27.29210937 7.01195312 -28 7 C-28 6.34 -28 5.68 -28 5 C-25.03 5.495 -25.03 5.495 -22 6 C-22 5.34 -22 4.68 -22 4 C-19.03 4.495 -19.03 4.495 -16 5 C-16 4.34 -16 3.68 -16 3 C-13.36 3.33 -10.72 3.66 -8 4 C-8 3.34 -8 2.68 -8 2 C-5.09399739 0.74335022 -3.20395416 0 0 0 Z " fill="#959691" transform="translate(486,154)"/>
<path d="M0 0 C0.99 0.495 0.99 0.495 2 1 C3.66399283 1.11887956 5.33249275 1.17711944 7.00048828 1.20532227 C8.56188034 1.2352401 8.56188034 1.2352401 10.15481567 1.26576233 C11.8454866 1.29083107 11.8454866 1.29083107 13.5703125 1.31640625 C14.72167694 1.33718735 15.87304138 1.35796844 17.05929565 1.37937927 C20.7478014 1.44491665 24.43638003 1.50377928 28.125 1.5625 C30.62110138 1.60568123 33.1171953 1.64929538 35.61328125 1.69335938 C41.74210981 1.80060231 47.87101133 1.90236089 54 2 C54 2.33 54 2.66 54 3 C36.51 3.33 19.02 3.66 1 4 C0.67 2.68 0.34 1.36 0 0 Z " fill="#F8F5EC" transform="translate(749,842)"/>
<path d="M0 0 C0.33 0 0.66 0 1 0 C1.78764311 7.87643107 -2.66448482 13.80640688 -7 20 C-7.99 19.67 -8.98 19.34 -10 19 C-6.46636771 11.77130045 -6.46636771 11.77130045 -4.375 8.3125 C-2.96625852 5.94325297 -1.99712945 3.56404716 -1 1 C-0.67 0.67 -0.34 0.34 0 0 Z " fill="#AFACAB" transform="translate(226,693)"/>
<path d="M0 0 C0.33 0.66 0.66 1.32 1 2 C-4.06062569 7.90406331 -10.41611653 10.36800971 -18 11 C-18 10.34 -18 9.68 -18 9 C-17.195625 8.87625 -16.39125 8.7525 -15.5625 8.625 C-14.716875 8.41875 -13.87125 8.2125 -13 8 C-12.67 7.34 -12.34 6.68 -12 6 C-10.00854609 4.98308736 -8.00812926 3.98357352 -6 3 C-5.34 2.34 -4.68 1.68 -4 1 C-1.875 0.375 -1.875 0.375 0 0 Z " fill="#ADAAA9" transform="translate(369,560)"/>
<path d="M0 0 C0.66 0 1.32 0 2 0 C2.33353204 5.44768994 1.35195699 9.18783695 -1 14 C-1.73378346 15.64378016 -2.46286569 17.28966612 -3.1875 18.9375 C-3.79120246 20.29187368 -4.39520315 21.64611467 -5 23 C-5.66 23 -6.32 23 -7 23 C-7 22.34 -7 21.68 -7 21 C-6.34 21 -5.68 21 -5 21 C-5.20238281 20.43925781 -5.40476562 19.87851562 -5.61328125 19.30078125 C-6.10988322 16.34625036 -5.39913924 14.90619583 -4.1875 12.1875 C-2.46099198 8.15499857 -1.10634069 4.24097263 0 0 Z " fill="#B7B4B1" transform="translate(295,296)"/>
<path d="M0 0 C0.66 0 1.32 0 2 0 C2.48009262 2.06228466 2.95903544 4.12483701 3.4375 6.1875 C3.83775391 7.91033203 3.83775391 7.91033203 4.24609375 9.66796875 C4.49488281 10.76753906 4.74367188 11.86710938 5 13 C5.2165625 13.886875 5.433125 14.77375 5.65625 15.6875 C6.16185979 19.08887494 5.07165752 21.78502744 4 25 C3.67 25 3.34 25 3 25 C3.495 20.545 3.495 20.545 4 16 C3.34 16 2.68 16 2 16 C2.33 14.02 2.66 12.04 3 10 C2.34 10 1.68 10 1 10 C1.04125 9.05125 1.0825 8.1025 1.125 7.125 C1.34973818 3.89755144 1.34973818 3.89755144 -1 2 C-0.67 1.34 -0.34 0.68 0 0 Z " fill="#B9B7B5" transform="translate(744,794)"/>
<path d="M0 0 C0.6628418 1.78637695 0.6628418 1.78637695 1 4 C-0.01635742 5.72338867 -0.01635742 5.72338867 -1.60546875 7.41796875 C-2.46301758 8.33932617 -2.46301758 8.33932617 -3.33789062 9.27929688 C-4.25344727 10.22385742 -4.25344727 10.22385742 -5.1875 11.1875 C-5.77853516 11.82880859 -6.36957031 12.47011719 -6.97851562 13.13085938 C-11.85759814 18.28190858 -11.85759814 18.28190858 -16 19 C-15.195625 18.2575 -14.39125 17.515 -13.5625 16.75 C-10.88463818 14.33711241 -10.88463818 14.33711241 -10.5 11.8125 C-10.335 11.214375 -10.17 10.61625 -10 10 C-7.4375 8.75 -7.4375 8.75 -5 8 C-5 7.34 -5 6.68 -5 6 C-4.02246356 4.97803008 -3.0194119 3.98020375 -2 3 C-1.34 2.01 -0.68 1.02 0 0 Z " fill="#A9A7A6" transform="translate(273,629)"/>
<path d="M0 0 C2.33317216 0.77772405 4.61435923 1.42415568 7 2 C7 2.33 7 2.66 7 3 C4.04142591 3.05379226 1.08382279 3.09357093 -1.875 3.125 C-3.13763672 3.15013672 -3.13763672 3.15013672 -4.42578125 3.17578125 C-5.23144531 3.18222656 -6.03710938 3.18867188 -6.8671875 3.1953125 C-7.61081543 3.20578613 -8.35444336 3.21625977 -9.12060547 3.22705078 C-11 3 -11 3 -13 1 C-7.80976113 -1.69892421 -5.57041229 -2.53200559 0 0 Z " fill="#A5A5A2" transform="translate(523,156)"/>
<path d="M0 0 C0.33 0 0.66 0 1 0 C1 2.64 1 5.28 1 8 C0.67 8 0.34 8 0 8 C-0.33 14.93 -0.66 21.86 -1 29 C-0.34 29 0.32 29 1 29 C1 30.98 1 32.96 1 35 C-2.89976559 29.15035161 -2.18380586 24.03303806 -2.1875 17.125 C-2.19974609 15.92746094 -2.21199219 14.72992188 -2.22460938 13.49609375 C-2.22654297 12.34496094 -2.22847656 11.19382812 -2.23046875 10.0078125 C-2.23457764 8.95223145 -2.23868652 7.89665039 -2.24291992 6.80908203 C-2.00131058 4.01515534 -1.44093238 2.37502206 0 0 Z " fill="#B8B7B4" transform="translate(345,358)"/>
<path d="M0 0 C0 0.66 0 1.32 0 2 C-0.6290625 2.24234375 -1.258125 2.4846875 -1.90625 2.734375 C-6.19897229 4.41526023 -10.39879657 6.13908647 -14.5 8.25 C-18 10 -18 10 -20 10 C-19 7 -19 7 -17.328125 5.9375 C-16.64234375 5.628125 -15.9565625 5.31875 -15.25 5 C-12.78290112 3.85863753 -10.64827868 2.76551912 -8.375 1.25 C-5.43229665 -0.29879124 -3.27787503 -0.22868896 0 0 Z " fill="#A2A39D" transform="translate(445,228)"/>
<path d="M0 0 C8.25 0 16.5 0 25 0 C25 0.33 25 0.66 25 1 C8.16402415 3.93537907 8.16402415 3.93537907 1 2 C0.67 1.34 0.34 0.68 0 0 Z " fill="#EEEDE9" transform="translate(488,219)"/>
<path d="M0 0 C0.66 0 1.32 0 2 0 C1.42231401 3.67382324 0.42308392 6.41176606 -1.4375 9.625 C-1.86933594 10.38039063 -2.30117187 11.13578125 -2.74609375 11.9140625 C-3.78298749 13.63898854 -4.88361594 15.32542391 -6 17 C-6.99 16.67 -7.98 16.34 -9 16 C-7.26407571 12.3628253 -5.42950886 9.2025344 -3 6 C-2.67 5.01 -2.34 4.02 -2 3 C-1.34 2.34 -0.68 1.68 0 1 C0 0.67 0 0.34 0 0 Z " fill="#A4A2A1" transform="translate(236,676)"/>
<path d="M0 0 C0.66 0 1.32 0 2 0 C2.59131554 5.6766292 1.41839805 8.69821089 -1.61328125 13.49609375 C-2.07089844 13.99238281 -2.52851562 14.48867188 -3 15 C-3.99 15 -4.98 15 -6 15 C-4.68246472 10.60821572 -2.91755176 6.68509004 -0.8046875 2.63671875 C0.07353443 1.15440473 0.07353443 1.15440473 0 0 Z " fill="#B0AEAC" transform="translate(645,430)"/>
<path d="M0 0 C-1.53694833 3.07389667 -4.45007069 4.11472012 -7.375 5.6875 C-7.96539062 6.02072266 -8.55578125 6.35394531 -9.1640625 6.69726562 C-10.73395034 7.54762154 -12.36552351 8.28157142 -14 9 C-14.99 8.67 -15.98 8.34 -17 8 C-17 7.34 -17 6.68 -17 6 C-15.783125 5.566875 -14.56625 5.13375 -13.3125 4.6875 C-10.71600788 3.72583625 -8.62840342 2.77197483 -6.25 1.3125 C-4 0 -4 0 0 0 Z " fill="#979893" transform="translate(403,612)"/>
<path d="M0 0 C3.3 0 6.6 0 10 0 C10 0.66 10 1.32 10 2 C13.3 2 16.6 2 20 2 C20 2.33 20 2.66 20 3 C17.43802188 3.22278071 14.87652444 3.42862563 12.3125 3.625 C11.2306543 3.72167969 11.2306543 3.72167969 10.12695312 3.8203125 C5.87409746 4.13102342 2.81256429 3.97020088 -1 2 C-0.67 1.34 -0.34 0.68 0 0 Z " fill="#BABAB6" transform="translate(488,529)"/>
<path d="M0 0 C1.38294718 0.01329757 2.76582404 0.03715018 4.1484375 0.0703125 C4.85484375 0.07933594 5.56125 0.08835937 6.2890625 0.09765625 C8.03399848 0.12123647 9.77876045 0.15710789 11.5234375 0.1953125 C11.5234375 0.5253125 11.5234375 0.8553125 11.5234375 1.1953125 C9.2134375 1.5253125 6.9034375 1.8553125 4.5234375 2.1953125 C4.5234375 2.8553125 4.5234375 3.5153125 4.5234375 4.1953125 C-2.1015625 4.4453125 -2.1015625 4.4453125 -5.4765625 2.1953125 C-3.4765625 0.1953125 -3.4765625 0.1953125 0 0 Z " fill="#A7A5A0" transform="translate(487.4765625,591.8046875)"/>
<path d="M0 0 C0.99 0.33 1.98 0.66 3 1 C1.37660195 2.70884005 -0.29319053 4.37446717 -2 6 C-2.66 6 -3.32 6 -4 6 C-4.268125 6.5775 -4.53625 7.155 -4.8125 7.75 C-6.01719859 10.0325868 -7.40798115 11.9737942 -9 14 C-9.66 13.67 -10.32 13.34 -11 13 C-9.46356148 9.31930113 -7.21849055 7.01224796 -4.375 4.25 C-3.55773437 3.45078125 -2.74046875 2.6515625 -1.8984375 1.828125 C-0.95871094 0.92320312 -0.95871094 0.92320312 0 0 Z " fill="#A7A39E" transform="translate(662,519)"/>
<path d="M0 0 C0.66 0 1.32 0 2 0 C0.66413946 2.88164201 -0.83637331 5.25276708 -2.875 7.6875 C-3.36742187 8.28949219 -3.85984375 8.89148438 -4.3671875 9.51171875 C-6.22477098 11.20487499 -7.54739113 11.60184921 -10 12 C-10 11.34 -10 10.68 -10 10 C-9.34 10 -8.68 10 -8 10 C-7.7525 9.4225 -7.505 8.845 -7.25 8.25 C-5.81700012 5.67060021 -4.21575324 3.93878408 -2 2 C-1.34 2 -0.68 2 0 2 C0 1.34 0 0.68 0 0 Z " fill="#A29F9D" transform="translate(616,479)"/>
<path d="M0 0 C0.66 0.33 1.32 0.66 2 1 C-0.31883213 5.50884026 -3.06451569 7.93906776 -7 11 C-7.33 10.01 -7.66 9.02 -8 8 C-5.36 5.36 -2.72 2.72 0 0 Z " fill="#AAA7A2" transform="translate(321,666)"/>
<path d="M0 0 C-0.66 0.66 -1.32 1.32 -2 2 C-3.32 2 -4.64 2 -6 2 C-6.33 2.66 -6.66 3.32 -7 4 C-9.2572026 5.48314991 -11.6261783 6.70518817 -14 8 C-14.33 7.01 -14.66 6.02 -15 5 C-13.27275209 4.00351082 -11.54444016 3.00877804 -9.80859375 2.02734375 C-8.46643683 1.26495224 -7.13610526 0.48166316 -5.8125 -0.3125 C-3.51944855 -1.18227814 -2.27161701 -0.81129179 0 0 Z " fill="#9C9D97" transform="translate(387,621)"/>
<path d="M0 0 C3.51769206 5.27653809 3.10579441 10.86392402 3 17 C2.34 17 1.68 17 1 17 C-0.125 9.25 -0.125 9.25 1 7 C0.34 7 -0.32 7 -1 7 C-0.67 4.69 -0.34 2.38 0 0 Z " fill="#B4B3B0" transform="translate(284,404)"/>
<path d="M0 0 C0.99 0.33 1.98 0.66 3 1 C0.82463382 3.28413449 -1.47102898 5.12133581 -4 7 C-6.01537279 8.64894138 -8.00692671 10.32400655 -10 12 C-9.49452628 7.91944849 -7.49911118 6.33727705 -4.4375 3.75 C-3.61121094 3.04359375 -2.78492188 2.3371875 -1.93359375 1.609375 C-1.29550781 1.07828125 -0.65742188 0.5471875 0 0 Z " fill="#A3A19E" transform="translate(404,249)"/>
<path d="M0 0 C1.32 0 2.64 0 4 0 C4 0.66 4 1.32 4 2 C-1.39460953 4.27141454 -6.26157749 4.20413361 -12 4 C-12 3.34 -12 2.68 -12 2 C-9.03 2.495 -9.03 2.495 -6 3 C-6 2.34 -6 1.68 -6 1 C-3.03 1.495 -3.03 1.495 0 2 C0 1.34 0 0.68 0 0 Z " fill="#BFBDB9" transform="translate(470,157)"/>
<path d="M0 0 C0.66 0.33 1.32 0.66 2 1 C0.24476928 4.94926912 -1.08824458 7.92187993 -5 10 C-5.99 9.67 -6.98 9.34 -8 9 C-8 8.34 -8 7.68 -8 7 C-6.824375 6.87625 -6.824375 6.87625 -5.625 6.75 C-2.87716848 6.27676847 -2.87716848 6.27676847 -1.75 4.0625 C-1.5025 3.381875 -1.255 2.70125 -1 2 C-0.67 1.34 -0.34 0.68 0 0 Z " fill="#B2B0AE" transform="translate(295,607)"/>
<path d="M0 0 C0.33 0 0.66 0 1 0 C1.02694851 1.95825873 1.04637218 3.91662226 1.0625 5.875 C1.07410156 6.96554687 1.08570313 8.05609375 1.09765625 9.1796875 C1 12 1 12 0 14 C-0.66 14 -1.32 14 -2 14 C-2 12.02 -2 10.04 -2 8 C-1.34 8 -0.68 8 0 8 C-0.2784375 6.2984375 -0.2784375 6.2984375 -0.5625 4.5625 C-0.7790625 2.7990625 -0.7790625 2.7990625 -1 1 C-0.67 0.67 -0.34 0.34 0 0 Z " fill="#CBC9C7" transform="translate(190,802)"/>
<path d="M0 0 C1.38317955 3.84216542 0.9279297 7.07414359 0 11 C-2.0625 12.9375 -2.0625 12.9375 -4 14 C-3.67 11.36 -3.34 8.72 -3 6 C-2.34 6 -1.68 6 -1 6 C-1.33 4.35 -1.66 2.7 -2 1 C-1.34 0.67 -0.68 0.34 0 0 Z " fill="#B8B5B2" transform="translate(196,775)"/>
<path d="M0 0 C3.3125 1.3125 3.3125 1.3125 5.3125 3.3125 C-1.3125 3.5625 -1.3125 3.5625 -4.6875 1.3125 C-4.6875 1.9725 -4.6875 2.6325 -4.6875 3.3125 C-6.0075 2.9825 -7.3275 2.6525 -8.6875 2.3125 C-5.37911127 -0.2941093 -4.24105376 -0.79070494 0 0 Z " fill="#BFBFB7" transform="translate(480.6875,218.6875)"/>
<path d="M0 0 C0.66 0 1.32 0 2 0 C1.4717235 3.80359083 0.74493835 6.25506165 -2 9 C-5.1875 10.25 -5.1875 10.25 -8 11 C-7.236875 10.0925 -6.47375 9.185 -5.6875 8.25 C-1.94254211 4.48012256 -1.94254211 4.48012256 0 0 Z " fill="#ADAAA8" transform="translate(626,466)"/>
<path d="M0 0 C0.66 0 1.32 0 2 0 C2.2493357 1.60115576 2.47378648 3.20620159 2.6875 4.8125 C2.87892578 6.15248047 2.87892578 6.15248047 3.07421875 7.51953125 C3 10 3 10 1.51953125 11.82421875 C0.76736328 12.40623047 0.76736328 12.40623047 0 13 C-0.33 11.02 -0.66 9.04 -1 7 C-0.34 7 0.32 7 1 7 C0.67 4.69 0.34 2.38 0 0 Z " fill="#BCB9B8" transform="translate(283,339)"/>
<path d="M0 0 C0.66 0 1.32 0 2 0 C3 3 3 3 2.22265625 4.82421875 C1.1484375 6.54947917 0.07421875 8.27473958 -1 10 C-1.99 9.67 -2.98 9.34 -4 9 C-2.68 6.03 -1.36 3.06 0 0 Z " fill="#ADAAA8" transform="translate(302,280)"/>
<path d="M0 0 C1.32 0.33 2.64 0.66 4 1 C3.401875 1.226875 2.80375 1.45375 2.1875 1.6875 C-0.56351888 3.33811133 -1.52484637 5.1972081 -3 8 C-3.99 7.67 -4.98 7.34 -6 7 C-4.02 4.69 -2.04 2.38 0 0 Z " fill="#AEACA7" transform="translate(342,647)"/>
<path d="M0 0 C0.66 0 1.32 0 2 0 C1.49477778 4.37859255 -1.17827222 6.81651224 -4 10 C-4.99 9.67 -5.98 9.34 -7 9 C-6.3503125 8.38125 -6.3503125 8.38125 -5.6875 7.75 C-3.39647222 5.37411934 -1.47820905 2.95641809 0 0 Z " fill="#B7B5B4" transform="translate(330,236)"/>
<path d="M0 0 C0.33 0.66 0.66 1.32 1 2 C-0.98 4.31 -2.96 6.62 -5 9 C-5.99 8.67 -6.98 8.34 -8 8 C-5.36 5.36 -2.72 2.72 0 0 Z " fill="#BAB8B7" transform="translate(286,616)"/>
<path d="M0 0 C0.99 0.33 1.98 0.66 3 1 C1.7934375 2.175625 1.7934375 2.175625 0.5625 3.375 C-1.98690417 5.71982856 -1.98690417 5.71982856 -3 8 C-3.99 7.67 -4.98 7.34 -6 7 C-4.02 4.69 -2.04 2.38 0 0 Z " fill="#A4A19C" transform="translate(672,507)"/>
<path d="M0 0 C2.10633718 1.70828921 2.93801608 2.52148416 3.29296875 5.26171875 C3.25816406 6.06222656 3.22335937 6.86273438 3.1875 7.6875 C3.16042969 8.49574219 3.13335938 9.30398438 3.10546875 10.13671875 C3.07066406 10.75160156 3.03585937 11.36648438 3 12 C2.34 12 1.68 12 1 12 C1.04125 10.88625 1.0825 9.7725 1.125 8.625 C1.41121859 4.95633975 1.41121859 4.95633975 -1 3 C-0.67 2.01 -0.34 1.02 0 0 Z " fill="#CCC9C8" transform="translate(652,343)"/>
<path d="M0 0 C2.97 0 5.94 0 9 0 C9 1.32 9 2.64 9 4 C5.125 3.125 5.125 3.125 4 2 C2.68 2 1.36 2 0 2 C0 1.34 0 0.68 0 0 Z " fill="#B3B3AF" transform="translate(525,220)"/>
<path d="M0 0 C0 0.99 0 1.98 0 3 C-5.14285714 7 -5.14285714 7 -9 7 C-9 6.34 -9 5.68 -9 5 C-8.195625 4.87625 -7.39125 4.7525 -6.5625 4.625 C-5.716875 4.41875 -4.87125 4.2125 -4 4 C-3.67 3.34 -3.34 2.68 -3 2 C-2.01 1.34 -1.02 0.68 0 0 Z " fill="#AFACAB" transform="translate(396,182)"/>
<path d="M0 0 C0.66 0.66 1.32 1.32 2 2 C0.99088542 3.7578125 -0.01822917 5.515625 -1.02734375 7.2734375 C-1.71719051 8.49798475 -2.37144538 9.74289077 -3 11 C-3.66 10.67 -4.32 10.34 -5 10 C-4.38545304 6.00544473 -2.29353263 3.25533664 0 0 Z " fill="#9B9792" transform="translate(289,706)"/>
<path d="M0 0 C0.66 0 1.32 0 2 0 C2.125 7.75 2.125 7.75 1 10 C0.01 10 -0.98 10 -2 10 C-2 9.34 -2 8.68 -2 8 C-1.34 8 -0.68 8 0 8 C-0.33 6.68 -0.66 5.36 -1 4 C-0.34 4 0.32 4 1 4 C0.67 2.68 0.34 1.36 0 0 Z " fill="#B5B3AF" transform="translate(650,413)"/>
<path d="M0 0 C0.66 0 1.32 0 2 0 C2 3.63 2 7.26 2 11 C1.01 10.67 0.02 10.34 -1 10 C-1 9.01 -1 8.02 -1 7 C-0.34 7 0.32 7 1 7 C0.67 4.69 0.34 2.38 0 0 Z " fill="#C6C3C0" transform="translate(653,396)"/>
<path d="M0 0 C0.33 1.32 0.66 2.64 1 4 C0.01 4 -0.98 4 -2 4 C-2 4.66 -2 5.32 -2 6 C-2.66 6 -3.32 6 -4 6 C-4 6.66 -4 7.32 -4 8 C-4.99 8 -5.98 8 -7 8 C-7 7.34 -7 6.68 -7 6 C-6.34 6 -5.68 6 -5 6 C-5 5.34 -5 4.68 -5 4 C-3.37373596 2.61767557 -1.7074998 1.28062485 0 0 Z " fill="#C9C6C6" transform="translate(342,223)"/>
<path d="M0 0 C0.66 0 1.32 0 2 0 C2.6875 1.6875 2.6875 1.6875 3 4 C0.73846154 8.63076923 0.73846154 8.63076923 -2 10 C-1.67 8.02 -1.34 6.04 -1 4 C-0.34 4 0.32 4 1 4 C0.67 2.68 0.34 1.36 0 0 Z " fill="#BCB9B7" transform="translate(197,764)"/>
<path d="M0 0 C0.53625 0.226875 1.0725 0.45375 1.625 0.6875 C0.635 0.6875 -0.355 0.6875 -1.375 0.6875 C-1.705 1.3475 -2.035 2.0075 -2.375 2.6875 C-4.01642963 3.7284066 -5.68212215 4.73254326 -7.375 5.6875 C-7.705 4.6975 -8.035 3.7075 -8.375 2.6875 C-2.95961538 -0.38942308 -2.95961538 -0.38942308 0 0 Z " fill="#9B9B95" transform="translate(370.375,629.3125)"/>
<path d="M0 0 C1.98 0.99 1.98 0.99 4 2 C4 2.66 4 3.32 4 4 C4.66 4 5.32 4 6 4 C6.66 5.32 7.32 6.64 8 8 C6.68 7.67 5.36 7.34 4 7 C4 6.34 4 5.68 4 5 C3.01 4.67 2.02 4.34 1 4 C0.3125 1.9375 0.3125 1.9375 0 0 Z " fill="#C6C3C3" transform="translate(715,618)"/>
<path d="M0 0 C0.9075 0.185625 1.815 0.37125 2.75 0.5625 C5.68314324 0.95734621 7.2644657 0.94691572 10 0 C9.67 0.99 9.34 1.98 9 3 C5.7 3 2.4 3 -1 3 C-0.67 2.01 -0.34 1.02 0 0 Z " fill="#BDBCB9" transform="translate(519,528)"/>
<path d="M0 0 C2.1875 0.3125 2.1875 0.3125 4 1 C3.34 1.66 2.68 2.32 2 3 C1.30251417 4.31747324 0.63040043 5.64914193 0 7 C-0.99 5.68 -1.98 4.36 -3 3 C-1.75 1.4375 -1.75 1.4375 0 0 Z " fill="#ABA8A5" transform="translate(678,499)"/>
<path d="M0 0 C0.33 0.66 0.66 1.32 1 2 C0.06553465 4.03144641 -0.93224776 6.03533587 -2 8 C-3.0625 6.1875 -3.0625 6.1875 -4 4 C-3.67 3.01 -3.34 2.02 -3 1 C-2.01 0.67 -1.02 0.34 0 0 Z " fill="#A3A0A0" transform="translate(641,445)"/>
<path d="M0 0 C0.66 0 1.32 0 2 0 C3.60725635 3.21451269 3.05748185 6.43612536 3 10 C2.34 10 1.68 10 1 10 C1.04125 9.05125 1.0825 8.1025 1.125 7.125 C1.34973818 3.89755144 1.34973818 3.89755144 -1 2 C-0.67 1.34 -0.34 0.68 0 0 Z " fill="#C2C0BF" transform="translate(744,794)"/>
<path d="M0 0 C0.66 0 1.32 0 2 0 C2.80967438 2.91482778 3.21845993 4.46113217 2.0625 7.3125 C1.5365625 8.1478125 1.5365625 8.1478125 1 9 C0.34 8.67 -0.32 8.34 -1 8 C-1 7.01 -1 6.02 -1 5 C-0.34 5 0.32 5 1 5 C0.67 3.35 0.34 1.7 0 0 Z " fill="#B8B4B1" transform="translate(285,329)"/>
<path d="M0 0 C0 0.66 0 1.32 0 2 C1.98 1.67 3.96 1.34 6 1 C5.67 1.66 5.34 2.32 5 3 C2.03 3 -0.94 3 -4 3 C-4.33 2.34 -4.66 1.68 -5 1 C-3 0 -3 0 0 0 Z " fill="#BCBBB8" transform="translate(536,158)"/>
<path d="M0 0 C0.66 0.33 1.32 0.66 2 1 C2 1.66 2 2.32 2 3 C5.465 2.505 5.465 2.505 9 2 C9 2.66 9 3.32 9 4 C1.49230769 4.36923077 1.49230769 4.36923077 -1 2.5 C-1.33 2.005 -1.66 1.51 -2 1 C-1.34 0.67 -0.68 0.34 0 0 Z " fill="#C8C7C4" transform="translate(473,527)"/>
<path d="M0 0 C0.33 0 0.66 0 1 0 C0.979375 1.093125 0.95875 2.18625 0.9375 3.3125 C0.81455548 6.94384191 0.81455548 6.94384191 2 10 C1.01 10 0.02 10 -1 10 C-1.02689216 8.52093108 -1.04634621 7.04172517 -1.0625 5.5625 C-1.07410156 4.73878906 -1.08570313 3.91507812 -1.09765625 3.06640625 C-1 1 -1 1 0 0 Z " fill="#C6C6C2" transform="translate(346,396)"/>
<path d="M0 0 C1 3 1 3 0 6 C0 7.32 0 8.64 0 10 C-0.66 10 -1.32 10 -2 10 C-2 7.03 -2 4.06 -2 1 C-1.34 0.67 -0.68 0.34 0 0 Z " fill="#C3C0BE" transform="translate(347,344)"/>
<path d="M0 0 C0.99 0.495 0.99 0.495 2 1 C2 1.99 2 2.98 2 4 C2.99 4.33 3.98 4.66 5 5 C5 5.66 5 6.32 5 7 C6.45833358 8.62514468 6.45833358 8.62514468 8 10 C4.31274141 9.00344362 3.20648538 8.3417689 1.1875 5 C0 2 0 2 0 0 Z " fill="#BAB6B7" transform="translate(672,240)"/>
<path d="M0 0 C0.66 0 1.32 0 2 0 C1.67 2.31 1.34 4.62 1 7 C-0.32 7.33 -1.64 7.66 -3 8 C-2.01 5.36 -1.02 2.72 0 0 Z " fill="#B2B0AE" transform="translate(215,714)"/>
<path d="M0 0 C2.7839183 1.39195915 2.97898997 3.15575779 4 6 C1 6 1 6 -1 5 C-0.67 3.35 -0.34 1.7 0 0 Z " fill="#A5A2A3" transform="translate(355,435)"/>
<path d="M0 0 C0.33 1.32 0.66 2.64 1 4 C-0.4375 6.25 -0.4375 6.25 -2 8 C-2.99 7.67 -3.98 7.34 -5 7 C-3.35 4.69 -1.7 2.38 0 0 Z " fill="#C1BFBD" transform="translate(321,248)"/>
<path d="M0 0 C0.66 0.33 1.32 0.66 2 1 C0.68 2.65 -0.64 4.3 -2 6 C-3.32 5.67 -4.64 5.34 -6 5 C-4.02 3.35 -2.04 1.7 0 0 Z " fill="#B5B2B1" transform="translate(364,203)"/>
<path d="M0 0 C0.99 0.33 1.98 0.66 3 1 C0.60490662 3.89932357 -1.31245243 4.50168276 -5 5 C-4.67 4.01 -4.34 3.02 -4 2 C-3.01 2.33 -2.02 2.66 -1 3 C-0.67 2.01 -0.34 1.02 0 0 Z " fill="#B4B0AF" transform="translate(403,178)"/>
<path d="M0 0 C0.66 0 1.32 0 2 0 C1.67 0.99 1.34 1.98 1 3 C-1.64 3.33 -4.28 3.66 -7 4 C-7 3.34 -7 2.68 -7 2 C-2.25 0.875 -2.25 0.875 0 2 C0 1.34 0 0.68 0 0 Z " fill="#BBB8B6" transform="translate(442,163)"/>
<path d="M0 0 C0.99 0 1.98 0 3 0 C3.66 1.98 4.32 3.96 5 6 C3.68 5.67 2.36 5.34 1 5 C0.67 3.35 0.34 1.7 0 0 Z " fill="#B9B6B3" transform="translate(728,743)"/>
<path d="M0 0 C0.33 0 0.66 0 1 0 C1 2.64 1 5.28 1 8 C0.01 8.33 -0.98 8.66 -2 9 C-2.20140476 5.37471432 -1.85776765 3.13498292 0 0 Z " fill="#D1CFCE" transform="translate(345,358)"/>
<path d="M0 0 C1.32 0.99 2.64 1.98 4 3 C1.69 3.66 -0.62 4.32 -3 5 C-3.33 4.01 -3.66 3.02 -4 2 C-3.01 2 -2.02 2 -1 2 C-0.67 1.34 -0.34 0.68 0 0 Z " fill="#BFBCBB" transform="translate(449,160)"/>
<path d="M0 0 C0.66 0.66 1.32 1.32 2 2 C1.34 2.66 0.68 3.32 0 4 C0 2.68 0 1.36 0 0 Z " fill="#000000" transform="translate(252,839)"/>
<path d="M0 0 C0.66 0 1.32 0 2 0 C1.67 0.99 1.34 1.98 1 3 C0.67 2.01 0.34 1.02 0 0 Z " fill="#0A0E0A" transform="translate(456,521)"/>
<path d="M0 0 C0.66 0 1.32 0 2 0 C1.67 0.66 1.34 1.32 1 2 C0.67 1.34 0.34 0.68 0 0 Z " fill="#FEFEFE" transform="translate(688,681)"/>
<path d="M0 0 C0.66 0 1.32 0 2 0 C1.67 0.66 1.34 1.32 1 2 C0.67 1.34 0.34 0.68 0 0 Z " fill="#FDFDFD" transform="translate(686,679)"/>
<path d="M0 0 C0.66 0 1.32 0 2 0 C1.67 0.66 1.34 1.32 1 2 C0.67 1.34 0.34 0.68 0 0 Z " fill="#FBFAFA" transform="translate(352,537)"/>
<path d="" fill="#000000" transform="translate(0,0)"/>
<path d="" fill="#000000" transform="translate(0,0)"/>
<path d="" fill="#040101" transform="translate(0,0)"/>
<path d="" fill="#DCDAD7" transform="translate(0,0)"/>
<path d="M0 0 C2 1 2 1 2 1 Z " fill="#F6F5F2" transform="translate(715,719)"/>
<path d="" fill="#FBFBF9" transform="translate(0,0)"/>
<path d="" fill="#F3F1E7" transform="translate(0,0)"/>
<path d="" fill="#131713" transform="translate(0,0)"/>
<path d="" fill="#C5C0C1" transform="translate(0,0)"/>
<path d="" fill="#030303" transform="translate(0,0)"/>
<path d="" fill="#000000" transform="translate(0,0)"/>
<path d="" fill="#D9D8D5" transform="translate(0,0)"/>
<path d="" fill="#DBDAD7" transform="translate(0,0)"/>
<path d="" fill="#FFFFFF" transform="translate(0,0)"/>
<path d="" fill="#FFFFFF" transform="translate(0,0)"/>
<path d="" fill="#FFFFF8" transform="translate(0,0)"/>
<path d="" fill="#9C9193" transform="translate(0,0)"/>
<path d="" fill="#FFFFFF" transform="translate(0,0)"/>
<path d="" fill="#FDF9F4" transform="translate(0,0)"/>
<path d="" fill="#FCFDFD" transform="translate(0,0)"/>
<path d="" fill="#FEFBFC" transform="translate(0,0)"/>
<path d="" fill="#FFFFFF" transform="translate(0,0)"/>
<path d="" fill="#FFFDF9" transform="translate(0,0)"/>
<path d="" fill="#FFFFFE" transform="translate(0,0)"/>
<path d="" fill="#FFFFFF" transform="translate(0,0)"/>
<path d="" fill="#F5F6F5" transform="translate(0,0)"/>
<path d="" fill="#5E5659" transform="translate(0,0)"/>
<path d="" fill="#554D54" transform="translate(0,0)"/>
<path d="" fill="#625B5D" transform="translate(0,0)"/>
<path d="" fill="#FCFCFA" transform="translate(0,0)"/>
<path d="" fill="#FFFFFF" transform="translate(0,0)"/>
<path d="" fill="#FFFFFF" transform="translate(0,0)"/>
<path d="" fill="#FFFFFF" transform="translate(0,0)"/>
<path d="" fill="#F5F6F5" transform="translate(0,0)"/>
<path d="" fill="#FDFCFC" transform="translate(0,0)"/>
<path d="" fill="#FDFFFF" transform="translate(0,0)"/>
<path d="" fill="#FAFAF8" transform="translate(0,0)"/>
<path d="" fill="#F1EFEB" transform="translate(0,0)"/>
<path d="" fill="#F7F5F0" transform="translate(0,0)"/>
<path d="" fill="#555050" transform="translate(0,0)"/>
<path d="" fill="#FFFFFC" transform="translate(0,0)"/>
<path d="" fill="#FFFFFF" transform="translate(0,0)"/>
<path d="" fill="#FFFFFF" transform="translate(0,0)"/>
<path d="" fill="#FFFFFF" transform="translate(0,0)"/>
<path d="" fill="#242623" transform="translate(0,0)"/>
<path d="" fill="#000000" transform="translate(0,0)"/>
<path d="" fill="#020503" transform="translate(0,0)"/>
<path d="" fill="#F8F7F7" transform="translate(0,0)"/>
<path d="" fill="#23261F" transform="translate(0,0)"/>
<path d="" fill="#030604" transform="translate(0,0)"/>
<path d="" fill="#FFFFFF" transform="translate(0,0)"/>
<path d="" fill="#FFFFFF" transform="translate(0,0)"/>
<path d="" fill="#FEFFFF" transform="translate(0,0)"/>
<path d="" fill="#FFFFFF" transform="translate(0,0)"/>
<path d="" fill="#FDFBFB" transform="translate(0,0)"/>
<path d="" fill="#FDFEFF" transform="translate(0,0)"/>
<path d="" fill="#FAF9F7" transform="translate(0,0)"/>
<path d="" fill="#82767C" transform="translate(0,0)"/>
<path d="" fill="#BBBABA" transform="translate(0,0)"/>
<path d="" fill="#897C81" transform="translate(0,0)"/>
<path d="" fill="#BABAB9" transform="translate(0,0)"/>
<path d="" fill="#EEEDED" transform="translate(0,0)"/>
<path d="" fill="#897D82" transform="translate(0,0)"/>
<path d="" fill="#FFFFFF" transform="translate(0,0)"/>
<path d="" fill="#F5F3F1" transform="translate(0,0)"/>
<path d="" fill="#0D0C0C" transform="translate(0,0)"/>
<path d="" fill="#D9D7D6" transform="translate(0,0)"/>
<path d="" fill="#FFFFFF" transform="translate(0,0)"/>
<path d="" fill="#7D6F74" transform="translate(0,0)"/>
<path d="" fill="#FBFBFB" transform="translate(0,0)"/>
<path d="" fill="#7D7075" transform="translate(0,0)"/>
<path d="" fill="#9D9292" transform="translate(0,0)"/>
<path d="" fill="#FFFFFF" transform="translate(0,0)"/>
<path d="" fill="#FFFFFF" transform="translate(0,0)"/>
<path d="" fill="#837777" transform="translate(0,0)"/>
<path d="" fill="#FFFFFF" transform="translate(0,0)"/>
<path d="" fill="#5E5759" transform="translate(0,0)"/>
<path d="" fill="#686162" transform="translate(0,0)"/>
<path d="" fill="#FDFDFC" transform="translate(0,0)"/>
<path d="" fill="#F8F7F6" transform="translate(0,0)"/>
<path d="" fill="#FEFDFD" transform="translate(0,0)"/>
<path d="" fill="#000000" transform="translate(0,0)"/>
<path d="" fill="#000000" transform="translate(0,0)"/>
<path d="" fill="#000000" transform="translate(0,0)"/>
<path d="" fill="#FFFFF8" transform="translate(0,0)"/>
<path d="" fill="#FFFFF8" transform="translate(0,0)"/>
<path d="" fill="#FFFEF4" transform="translate(0,0)"/>
<path d="" fill="#FCF6F0" transform="translate(0,0)"/>
<path d="" fill="#000000" transform="translate(0,0)"/>
<path d="" fill="#010101" transform="translate(0,0)"/>
</svg>
